<mxfile host="65bd71144e" pages="7">
    <diagram id="R2lEEEUBdFMjLlhIrx00" name="Page-1">
        <mxGraphModel dx="896" dy="850" grid="1" gridSize="10" guides="1" tooltips="1" connect="1" arrows="1" fold="1" page="1" pageScale="1" pageWidth="850" pageHeight="1100" math="0" shadow="0" extFonts="Permanent Marker^https://fonts.googleapis.com/css?family=Permanent+Marker">
            <root>
                <mxCell id="0"/>
                <mxCell id="1" parent="0"/>
                <mxCell id="C-vyLk0tnHw3VtMMgP7b-13" value="Itinaries" style="shape=table;startSize=30;container=1;collapsible=1;childLayout=tableLayout;fixedRows=1;rowLines=0;fontStyle=1;align=center;resizeLast=1;" parent="1" vertex="1">
                    <mxGeometry x="160" y="160" width="250" height="220" as="geometry"/>
                </mxCell>
                <mxCell id="C-vyLk0tnHw3VtMMgP7b-14" value="" style="shape=partialRectangle;collapsible=0;dropTarget=0;pointerEvents=0;fillColor=none;points=[[0,0.5],[1,0.5]];portConstraint=eastwest;top=0;left=0;right=0;bottom=1;" parent="C-vyLk0tnHw3VtMMgP7b-13" vertex="1">
                    <mxGeometry y="30" width="250" height="30" as="geometry"/>
                </mxCell>
                <mxCell id="C-vyLk0tnHw3VtMMgP7b-15" value="PK" style="shape=partialRectangle;overflow=hidden;connectable=0;fillColor=none;top=0;left=0;bottom=0;right=0;fontStyle=1;" parent="C-vyLk0tnHw3VtMMgP7b-14" vertex="1">
                    <mxGeometry width="30" height="30" as="geometry">
                        <mxRectangle width="30" height="30" as="alternateBounds"/>
                    </mxGeometry>
                </mxCell>
                <mxCell id="C-vyLk0tnHw3VtMMgP7b-16" value="id int" style="shape=partialRectangle;overflow=hidden;connectable=0;fillColor=none;top=0;left=0;bottom=0;right=0;align=left;spacingLeft=6;fontStyle=1;" parent="C-vyLk0tnHw3VtMMgP7b-14" vertex="1">
                    <mxGeometry x="30" width="220" height="30" as="geometry">
                        <mxRectangle width="220" height="30" as="alternateBounds"/>
                    </mxGeometry>
                </mxCell>
                <mxCell id="tLda2oD--kg20EkaEPYL-23" value="" style="shape=tableRow;horizontal=0;startSize=0;swimlaneHead=0;swimlaneBody=0;fillColor=none;collapsible=0;dropTarget=0;points=[[0,0.5],[1,0.5]];portConstraint=eastwest;top=0;left=0;right=0;bottom=0;" parent="C-vyLk0tnHw3VtMMgP7b-13" vertex="1">
                    <mxGeometry y="60" width="250" height="30" as="geometry"/>
                </mxCell>
                <mxCell id="tLda2oD--kg20EkaEPYL-24" value="FK" style="shape=partialRectangle;connectable=0;fillColor=none;top=0;left=0;bottom=0;right=0;fontStyle=0;overflow=hidden;" parent="tLda2oD--kg20EkaEPYL-23" vertex="1">
                    <mxGeometry width="30" height="30" as="geometry">
                        <mxRectangle width="30" height="30" as="alternateBounds"/>
                    </mxGeometry>
                </mxCell>
                <mxCell id="tLda2oD--kg20EkaEPYL-25" value="fk_destination" style="shape=partialRectangle;connectable=0;fillColor=none;top=0;left=0;bottom=0;right=0;align=left;spacingLeft=6;fontStyle=0;overflow=hidden;" parent="tLda2oD--kg20EkaEPYL-23" vertex="1">
                    <mxGeometry x="30" width="220" height="30" as="geometry">
                        <mxRectangle width="220" height="30" as="alternateBounds"/>
                    </mxGeometry>
                </mxCell>
                <mxCell id="C-vyLk0tnHw3VtMMgP7b-17" value="" style="shape=partialRectangle;collapsible=0;dropTarget=0;pointerEvents=0;fillColor=none;points=[[0,0.5],[1,0.5]];portConstraint=eastwest;top=0;left=0;right=0;bottom=0;" parent="C-vyLk0tnHw3VtMMgP7b-13" vertex="1">
                    <mxGeometry y="90" width="250" height="30" as="geometry"/>
                </mxCell>
                <mxCell id="C-vyLk0tnHw3VtMMgP7b-18" value="" style="shape=partialRectangle;overflow=hidden;connectable=0;fillColor=none;top=0;left=0;bottom=0;right=0;" parent="C-vyLk0tnHw3VtMMgP7b-17" vertex="1">
                    <mxGeometry width="30" height="30" as="geometry">
                        <mxRectangle width="30" height="30" as="alternateBounds"/>
                    </mxGeometry>
                </mxCell>
                <mxCell id="C-vyLk0tnHw3VtMMgP7b-19" value="date Date" style="shape=partialRectangle;overflow=hidden;connectable=0;fillColor=#CC0000;top=0;left=0;bottom=0;right=0;align=left;spacingLeft=6;strokeColor=#FFFF33;" parent="C-vyLk0tnHw3VtMMgP7b-17" vertex="1">
                    <mxGeometry x="30" width="220" height="30" as="geometry">
                        <mxRectangle width="220" height="30" as="alternateBounds"/>
                    </mxGeometry>
                </mxCell>
                <mxCell id="C-vyLk0tnHw3VtMMgP7b-20" value="" style="shape=partialRectangle;collapsible=0;dropTarget=0;pointerEvents=0;fillColor=none;points=[[0,0.5],[1,0.5]];portConstraint=eastwest;top=0;left=0;right=0;bottom=0;" parent="C-vyLk0tnHw3VtMMgP7b-13" vertex="1">
                    <mxGeometry y="120" width="250" height="30" as="geometry"/>
                </mxCell>
                <mxCell id="C-vyLk0tnHw3VtMMgP7b-21" value="" style="shape=partialRectangle;overflow=hidden;connectable=0;fillColor=none;top=0;left=0;bottom=0;right=0;" parent="C-vyLk0tnHw3VtMMgP7b-20" vertex="1">
                    <mxGeometry width="30" height="30" as="geometry">
                        <mxRectangle width="30" height="30" as="alternateBounds"/>
                    </mxGeometry>
                </mxCell>
                <mxCell id="C-vyLk0tnHw3VtMMgP7b-22" value="hours Time" style="shape=partialRectangle;overflow=hidden;connectable=0;fillColor=#CC0000;top=0;left=0;bottom=0;right=0;align=left;spacingLeft=6;strokeColor=#F0F0F0;" parent="C-vyLk0tnHw3VtMMgP7b-20" vertex="1">
                    <mxGeometry x="30" width="220" height="30" as="geometry">
                        <mxRectangle width="220" height="30" as="alternateBounds"/>
                    </mxGeometry>
                </mxCell>
                <mxCell id="65" value="" style="shape=partialRectangle;collapsible=0;dropTarget=0;pointerEvents=0;fillColor=none;points=[[0,0.5],[1,0.5]];portConstraint=eastwest;top=0;left=0;right=0;bottom=0;" vertex="1" parent="C-vyLk0tnHw3VtMMgP7b-13">
                    <mxGeometry y="150" width="250" height="30" as="geometry"/>
                </mxCell>
                <mxCell id="66" value="" style="shape=partialRectangle;overflow=hidden;connectable=0;fillColor=none;top=0;left=0;bottom=0;right=0;" vertex="1" parent="65">
                    <mxGeometry width="30" height="30" as="geometry">
                        <mxRectangle width="30" height="30" as="alternateBounds"/>
                    </mxGeometry>
                </mxCell>
                <mxCell id="67" value="startAddress string" style="shape=partialRectangle;overflow=hidden;connectable=0;fillColor=none;top=0;left=0;bottom=0;right=0;align=left;spacingLeft=6;strokeColor=none;" vertex="1" parent="65">
                    <mxGeometry x="30" width="220" height="30" as="geometry">
                        <mxRectangle width="220" height="30" as="alternateBounds"/>
                    </mxGeometry>
                </mxCell>
                <mxCell id="68" value="" style="shape=partialRectangle;collapsible=0;dropTarget=0;pointerEvents=0;fillColor=none;points=[[0,0.5],[1,0.5]];portConstraint=eastwest;top=0;left=0;right=0;bottom=0;" vertex="1" parent="C-vyLk0tnHw3VtMMgP7b-13">
                    <mxGeometry y="180" width="250" height="30" as="geometry"/>
                </mxCell>
                <mxCell id="69" value="" style="shape=partialRectangle;overflow=hidden;connectable=0;fillColor=none;top=0;left=0;bottom=0;right=0;" vertex="1" parent="68">
                    <mxGeometry width="30" height="30" as="geometry">
                        <mxRectangle width="30" height="30" as="alternateBounds"/>
                    </mxGeometry>
                </mxCell>
                <mxCell id="70" value="seats int" style="shape=partialRectangle;overflow=hidden;connectable=0;fillColor=none;top=0;left=0;bottom=0;right=0;align=left;spacingLeft=6;strokeColor=#F0F0F0;" vertex="1" parent="68">
                    <mxGeometry x="30" width="220" height="30" as="geometry">
                        <mxRectangle width="220" height="30" as="alternateBounds"/>
                    </mxGeometry>
                </mxCell>
                <mxCell id="C-vyLk0tnHw3VtMMgP7b-23" value="Destination" style="shape=table;startSize=30;container=1;collapsible=1;childLayout=tableLayout;fixedRows=1;rowLines=0;fontStyle=1;align=center;resizeLast=1;" parent="1" vertex="1">
                    <mxGeometry x="150" y="480" width="250" height="100" as="geometry"/>
                </mxCell>
                <mxCell id="C-vyLk0tnHw3VtMMgP7b-24" value="" style="shape=partialRectangle;collapsible=0;dropTarget=0;pointerEvents=0;fillColor=none;points=[[0,0.5],[1,0.5]];portConstraint=eastwest;top=0;left=0;right=0;bottom=1;" parent="C-vyLk0tnHw3VtMMgP7b-23" vertex="1">
                    <mxGeometry y="30" width="250" height="30" as="geometry"/>
                </mxCell>
                <mxCell id="C-vyLk0tnHw3VtMMgP7b-25" value="PK" style="shape=partialRectangle;overflow=hidden;connectable=0;fillColor=none;top=0;left=0;bottom=0;right=0;fontStyle=1;" parent="C-vyLk0tnHw3VtMMgP7b-24" vertex="1">
                    <mxGeometry width="30" height="30" as="geometry">
                        <mxRectangle width="30" height="30" as="alternateBounds"/>
                    </mxGeometry>
                </mxCell>
                <mxCell id="C-vyLk0tnHw3VtMMgP7b-26" value="id string" style="shape=partialRectangle;overflow=hidden;connectable=0;fillColor=none;top=0;left=0;bottom=0;right=0;align=left;spacingLeft=6;fontStyle=1;" parent="C-vyLk0tnHw3VtMMgP7b-24" vertex="1">
                    <mxGeometry x="30" width="220" height="30" as="geometry">
                        <mxRectangle width="220" height="30" as="alternateBounds"/>
                    </mxGeometry>
                </mxCell>
                <mxCell id="C-vyLk0tnHw3VtMMgP7b-27" value="" style="shape=partialRectangle;collapsible=0;dropTarget=0;pointerEvents=0;fillColor=none;points=[[0,0.5],[1,0.5]];portConstraint=eastwest;top=0;left=0;right=0;bottom=0;" parent="C-vyLk0tnHw3VtMMgP7b-23" vertex="1">
                    <mxGeometry y="60" width="250" height="30" as="geometry"/>
                </mxCell>
                <mxCell id="C-vyLk0tnHw3VtMMgP7b-28" value="" style="shape=partialRectangle;overflow=hidden;connectable=0;fillColor=none;top=0;left=0;bottom=0;right=0;" parent="C-vyLk0tnHw3VtMMgP7b-27" vertex="1">
                    <mxGeometry width="30" height="30" as="geometry">
                        <mxRectangle width="30" height="30" as="alternateBounds"/>
                    </mxGeometry>
                </mxCell>
                <mxCell id="C-vyLk0tnHw3VtMMgP7b-29" value="adress string" style="shape=partialRectangle;overflow=hidden;connectable=0;fillColor=none;top=0;left=0;bottom=0;right=0;align=left;spacingLeft=6;" parent="C-vyLk0tnHw3VtMMgP7b-27" vertex="1">
                    <mxGeometry x="30" width="220" height="30" as="geometry">
                        <mxRectangle width="220" height="30" as="alternateBounds"/>
                    </mxGeometry>
                </mxCell>
                <mxCell id="C-vyLk0tnHw3VtMMgP7b-2" value="User" style="shape=table;startSize=30;container=1;collapsible=1;childLayout=tableLayout;fixedRows=1;rowLines=0;fontStyle=1;align=center;resizeLast=1;" parent="1" vertex="1">
                    <mxGeometry x="550" y="520" width="250" height="220" as="geometry">
                        <mxRectangle x="450" y="120" width="80" height="30" as="alternateBounds"/>
                    </mxGeometry>
                </mxCell>
                <mxCell id="C-vyLk0tnHw3VtMMgP7b-3" value="" style="shape=partialRectangle;collapsible=0;dropTarget=0;pointerEvents=0;fillColor=none;points=[[0,0.5],[1,0.5]];portConstraint=eastwest;top=0;left=0;right=0;bottom=1;" parent="C-vyLk0tnHw3VtMMgP7b-2" vertex="1">
                    <mxGeometry y="30" width="250" height="30" as="geometry"/>
                </mxCell>
                <mxCell id="C-vyLk0tnHw3VtMMgP7b-4" value="PK" style="shape=partialRectangle;overflow=hidden;connectable=0;fillColor=none;top=0;left=0;bottom=0;right=0;fontStyle=1;" parent="C-vyLk0tnHw3VtMMgP7b-3" vertex="1">
                    <mxGeometry width="30" height="30" as="geometry">
                        <mxRectangle width="30" height="30" as="alternateBounds"/>
                    </mxGeometry>
                </mxCell>
                <mxCell id="C-vyLk0tnHw3VtMMgP7b-5" value="email string" style="shape=partialRectangle;overflow=hidden;connectable=0;fillColor=none;top=0;left=0;bottom=0;right=0;align=left;spacingLeft=6;fontStyle=1;" parent="C-vyLk0tnHw3VtMMgP7b-3" vertex="1">
                    <mxGeometry x="30" width="220" height="30" as="geometry">
                        <mxRectangle width="220" height="30" as="alternateBounds"/>
                    </mxGeometry>
                </mxCell>
                <mxCell id="C-vyLk0tnHw3VtMMgP7b-6" value="" style="shape=partialRectangle;collapsible=0;dropTarget=0;pointerEvents=0;fillColor=none;points=[[0,0.5],[1,0.5]];portConstraint=eastwest;top=0;left=0;right=0;bottom=0;" parent="C-vyLk0tnHw3VtMMgP7b-2" vertex="1">
                    <mxGeometry y="60" width="250" height="30" as="geometry"/>
                </mxCell>
                <mxCell id="C-vyLk0tnHw3VtMMgP7b-7" value="" style="shape=partialRectangle;overflow=hidden;connectable=0;fillColor=none;top=0;left=0;bottom=0;right=0;" parent="C-vyLk0tnHw3VtMMgP7b-6" vertex="1">
                    <mxGeometry width="30" height="30" as="geometry">
                        <mxRectangle width="30" height="30" as="alternateBounds"/>
                    </mxGeometry>
                </mxCell>
                <mxCell id="C-vyLk0tnHw3VtMMgP7b-8" value="password string" style="shape=partialRectangle;overflow=hidden;connectable=0;fillColor=none;top=0;left=0;bottom=0;right=0;align=left;spacingLeft=6;" parent="C-vyLk0tnHw3VtMMgP7b-6" vertex="1">
                    <mxGeometry x="30" width="220" height="30" as="geometry">
                        <mxRectangle width="220" height="30" as="alternateBounds"/>
                    </mxGeometry>
                </mxCell>
                <mxCell id="C-vyLk0tnHw3VtMMgP7b-9" value="" style="shape=partialRectangle;collapsible=0;dropTarget=0;pointerEvents=0;fillColor=none;points=[[0,0.5],[1,0.5]];portConstraint=eastwest;top=0;left=0;right=0;bottom=0;" parent="C-vyLk0tnHw3VtMMgP7b-2" vertex="1">
                    <mxGeometry y="90" width="250" height="30" as="geometry"/>
                </mxCell>
                <mxCell id="C-vyLk0tnHw3VtMMgP7b-10" value="" style="shape=partialRectangle;overflow=hidden;connectable=0;fillColor=none;top=0;left=0;bottom=0;right=0;" parent="C-vyLk0tnHw3VtMMgP7b-9" vertex="1">
                    <mxGeometry width="30" height="30" as="geometry">
                        <mxRectangle width="30" height="30" as="alternateBounds"/>
                    </mxGeometry>
                </mxCell>
                <mxCell id="C-vyLk0tnHw3VtMMgP7b-11" value="adress string " style="shape=partialRectangle;overflow=hidden;connectable=0;fillColor=none;top=0;left=0;bottom=0;right=0;align=left;spacingLeft=6;" parent="C-vyLk0tnHw3VtMMgP7b-9" vertex="1">
                    <mxGeometry x="30" width="220" height="30" as="geometry">
                        <mxRectangle width="220" height="30" as="alternateBounds"/>
                    </mxGeometry>
                </mxCell>
                <mxCell id="tLda2oD--kg20EkaEPYL-14" value="" style="shape=tableRow;horizontal=0;startSize=0;swimlaneHead=0;swimlaneBody=0;fillColor=none;collapsible=0;dropTarget=0;points=[[0,0.5],[1,0.5]];portConstraint=eastwest;top=0;left=0;right=0;bottom=0;" parent="C-vyLk0tnHw3VtMMgP7b-2" vertex="1">
                    <mxGeometry y="120" width="250" height="30" as="geometry"/>
                </mxCell>
                <mxCell id="tLda2oD--kg20EkaEPYL-15" value="" style="shape=partialRectangle;connectable=0;fillColor=none;top=0;left=0;bottom=0;right=0;editable=1;overflow=hidden;" parent="tLda2oD--kg20EkaEPYL-14" vertex="1">
                    <mxGeometry width="30" height="30" as="geometry">
                        <mxRectangle width="30" height="30" as="alternateBounds"/>
                    </mxGeometry>
                </mxCell>
                <mxCell id="tLda2oD--kg20EkaEPYL-16" value="number_passengers_max int" style="shape=partialRectangle;connectable=0;fillColor=none;top=0;left=0;bottom=0;right=0;align=left;spacingLeft=6;overflow=hidden;" parent="tLda2oD--kg20EkaEPYL-14" vertex="1">
                    <mxGeometry x="30" width="220" height="30" as="geometry">
                        <mxRectangle width="220" height="30" as="alternateBounds"/>
                    </mxGeometry>
                </mxCell>
                <mxCell id="tLda2oD--kg20EkaEPYL-17" value="" style="shape=tableRow;horizontal=0;startSize=0;swimlaneHead=0;swimlaneBody=0;fillColor=none;collapsible=0;dropTarget=0;points=[[0,0.5],[1,0.5]];portConstraint=eastwest;top=0;left=0;right=0;bottom=0;" parent="C-vyLk0tnHw3VtMMgP7b-2" vertex="1">
                    <mxGeometry y="150" width="250" height="30" as="geometry"/>
                </mxCell>
                <mxCell id="tLda2oD--kg20EkaEPYL-18" value="" style="shape=partialRectangle;connectable=0;fillColor=none;top=0;left=0;bottom=0;right=0;editable=1;overflow=hidden;" parent="tLda2oD--kg20EkaEPYL-17" vertex="1">
                    <mxGeometry width="30" height="30" as="geometry">
                        <mxRectangle width="30" height="30" as="alternateBounds"/>
                    </mxGeometry>
                </mxCell>
                <mxCell id="tLda2oD--kg20EkaEPYL-19" value="lisence_plate string" style="shape=partialRectangle;connectable=0;fillColor=none;top=0;left=0;bottom=0;right=0;align=left;spacingLeft=6;overflow=hidden;" parent="tLda2oD--kg20EkaEPYL-17" vertex="1">
                    <mxGeometry x="30" width="220" height="30" as="geometry">
                        <mxRectangle width="220" height="30" as="alternateBounds"/>
                    </mxGeometry>
                </mxCell>
                <mxCell id="tLda2oD--kg20EkaEPYL-20" value="" style="shape=tableRow;horizontal=0;startSize=0;swimlaneHead=0;swimlaneBody=0;fillColor=none;collapsible=0;dropTarget=0;points=[[0,0.5],[1,0.5]];portConstraint=eastwest;top=0;left=0;right=0;bottom=0;" parent="C-vyLk0tnHw3VtMMgP7b-2" vertex="1">
                    <mxGeometry y="180" width="250" height="30" as="geometry"/>
                </mxCell>
                <mxCell id="tLda2oD--kg20EkaEPYL-21" value="" style="shape=partialRectangle;connectable=0;fillColor=none;top=0;left=0;bottom=0;right=0;editable=1;overflow=hidden;" parent="tLda2oD--kg20EkaEPYL-20" vertex="1">
                    <mxGeometry width="30" height="30" as="geometry">
                        <mxRectangle width="30" height="30" as="alternateBounds"/>
                    </mxGeometry>
                </mxCell>
                <mxCell id="tLda2oD--kg20EkaEPYL-22" value="picture image" style="shape=partialRectangle;connectable=0;fillColor=none;top=0;left=0;bottom=0;right=0;align=left;spacingLeft=6;overflow=hidden;" parent="tLda2oD--kg20EkaEPYL-20" vertex="1">
                    <mxGeometry x="30" width="220" height="30" as="geometry">
                        <mxRectangle width="220" height="30" as="alternateBounds"/>
                    </mxGeometry>
                </mxCell>
                <mxCell id="tLda2oD--kg20EkaEPYL-51" value="Itinaries_User" style="shape=table;startSize=30;container=1;collapsible=1;childLayout=tableLayout;fixedRows=1;rowLines=0;fontStyle=1;align=center;resizeLast=1;" parent="1" vertex="1">
                    <mxGeometry x="530" y="130" width="250" height="220" as="geometry"/>
                </mxCell>
                <mxCell id="tLda2oD--kg20EkaEPYL-52" value="" style="shape=partialRectangle;collapsible=0;dropTarget=0;pointerEvents=0;fillColor=none;points=[[0,0.5],[1,0.5]];portConstraint=eastwest;top=0;left=0;right=0;bottom=1;" parent="tLda2oD--kg20EkaEPYL-51" vertex="1">
                    <mxGeometry y="30" width="250" height="30" as="geometry"/>
                </mxCell>
                <mxCell id="tLda2oD--kg20EkaEPYL-53" value="PK" style="shape=partialRectangle;overflow=hidden;connectable=0;fillColor=none;top=0;left=0;bottom=0;right=0;fontStyle=1;" parent="tLda2oD--kg20EkaEPYL-52" vertex="1">
                    <mxGeometry width="30" height="30" as="geometry">
                        <mxRectangle width="30" height="30" as="alternateBounds"/>
                    </mxGeometry>
                </mxCell>
                <mxCell id="tLda2oD--kg20EkaEPYL-54" value="id int" style="shape=partialRectangle;overflow=hidden;connectable=0;fillColor=none;top=0;left=0;bottom=0;right=0;align=left;spacingLeft=6;fontStyle=1;" parent="tLda2oD--kg20EkaEPYL-52" vertex="1">
                    <mxGeometry x="30" width="220" height="30" as="geometry">
                        <mxRectangle width="220" height="30" as="alternateBounds"/>
                    </mxGeometry>
                </mxCell>
                <mxCell id="tLda2oD--kg20EkaEPYL-55" value="" style="shape=tableRow;horizontal=0;startSize=0;swimlaneHead=0;swimlaneBody=0;fillColor=none;collapsible=0;dropTarget=0;points=[[0,0.5],[1,0.5]];portConstraint=eastwest;top=0;left=0;right=0;bottom=0;" parent="tLda2oD--kg20EkaEPYL-51" vertex="1">
                    <mxGeometry y="60" width="250" height="30" as="geometry"/>
                </mxCell>
                <mxCell id="tLda2oD--kg20EkaEPYL-56" value="FK" style="shape=partialRectangle;connectable=0;fillColor=none;top=0;left=0;bottom=0;right=0;fontStyle=0;overflow=hidden;" parent="tLda2oD--kg20EkaEPYL-55" vertex="1">
                    <mxGeometry width="30" height="30" as="geometry">
                        <mxRectangle width="30" height="30" as="alternateBounds"/>
                    </mxGeometry>
                </mxCell>
                <mxCell id="tLda2oD--kg20EkaEPYL-57" value="fk_itinaries int " style="shape=partialRectangle;connectable=0;fillColor=none;top=0;left=0;bottom=0;right=0;align=left;spacingLeft=6;fontStyle=0;overflow=hidden;" parent="tLda2oD--kg20EkaEPYL-55" vertex="1">
                    <mxGeometry x="30" width="220" height="30" as="geometry">
                        <mxRectangle width="220" height="30" as="alternateBounds"/>
                    </mxGeometry>
                </mxCell>
                <mxCell id="tLda2oD--kg20EkaEPYL-58" value="" style="shape=tableRow;horizontal=0;startSize=0;swimlaneHead=0;swimlaneBody=0;fillColor=none;collapsible=0;dropTarget=0;points=[[0,0.5],[1,0.5]];portConstraint=eastwest;top=0;left=0;right=0;bottom=0;" parent="tLda2oD--kg20EkaEPYL-51" vertex="1">
                    <mxGeometry y="90" width="250" height="30" as="geometry"/>
                </mxCell>
                <mxCell id="tLda2oD--kg20EkaEPYL-59" value="FK" style="shape=partialRectangle;connectable=0;fillColor=none;top=0;left=0;bottom=0;right=0;fontStyle=0;overflow=hidden;" parent="tLda2oD--kg20EkaEPYL-58" vertex="1">
                    <mxGeometry width="30" height="30" as="geometry">
                        <mxRectangle width="30" height="30" as="alternateBounds"/>
                    </mxGeometry>
                </mxCell>
                <mxCell id="tLda2oD--kg20EkaEPYL-60" value="fk_user string" style="shape=partialRectangle;connectable=0;fillColor=none;top=0;left=0;bottom=0;right=0;align=left;spacingLeft=6;fontStyle=0;overflow=hidden;" parent="tLda2oD--kg20EkaEPYL-58" vertex="1">
                    <mxGeometry x="30" width="220" height="30" as="geometry">
                        <mxRectangle width="220" height="30" as="alternateBounds"/>
                    </mxGeometry>
                </mxCell>
                <mxCell id="tLda2oD--kg20EkaEPYL-11" value="" style="shape=tableRow;horizontal=0;startSize=0;swimlaneHead=0;swimlaneBody=0;fillColor=none;collapsible=0;dropTarget=0;points=[[0,0.5],[1,0.5]];portConstraint=eastwest;top=0;left=0;right=0;bottom=0;" parent="tLda2oD--kg20EkaEPYL-51" vertex="1">
                    <mxGeometry y="120" width="250" height="30" as="geometry"/>
                </mxCell>
                <mxCell id="tLda2oD--kg20EkaEPYL-12" value="" style="shape=partialRectangle;connectable=0;fillColor=none;top=0;left=0;bottom=0;right=0;editable=1;overflow=hidden;" parent="tLda2oD--kg20EkaEPYL-11" vertex="1">
                    <mxGeometry width="30" height="30" as="geometry">
                        <mxRectangle width="30" height="30" as="alternateBounds"/>
                    </mxGeometry>
                </mxCell>
                <mxCell id="tLda2oD--kg20EkaEPYL-13" value="type_user string" style="shape=partialRectangle;connectable=0;fillColor=none;top=0;left=0;bottom=0;right=0;align=left;spacingLeft=6;overflow=hidden;" parent="tLda2oD--kg20EkaEPYL-11" vertex="1">
                    <mxGeometry x="30" width="220" height="30" as="geometry">
                        <mxRectangle width="220" height="30" as="alternateBounds"/>
                    </mxGeometry>
                </mxCell>
                <mxCell id="tLda2oD--kg20EkaEPYL-71" value="" style="shape=tableRow;horizontal=0;startSize=0;swimlaneHead=0;swimlaneBody=0;fillColor=none;collapsible=0;dropTarget=0;points=[[0,0.5],[1,0.5]];portConstraint=eastwest;top=0;left=0;right=0;bottom=0;" parent="tLda2oD--kg20EkaEPYL-51" vertex="1">
                    <mxGeometry y="150" width="250" height="30" as="geometry"/>
                </mxCell>
                <mxCell id="tLda2oD--kg20EkaEPYL-72" value="" style="shape=partialRectangle;connectable=0;fillColor=none;top=0;left=0;bottom=0;right=0;editable=1;overflow=hidden;" parent="tLda2oD--kg20EkaEPYL-71" vertex="1">
                    <mxGeometry width="30" height="30" as="geometry">
                        <mxRectangle width="30" height="30" as="alternateBounds"/>
                    </mxGeometry>
                </mxCell>
                <mxCell id="tLda2oD--kg20EkaEPYL-73" value="request_user boolean" style="shape=partialRectangle;connectable=0;fillColor=none;top=0;left=0;bottom=0;right=0;align=left;spacingLeft=6;overflow=hidden;" parent="tLda2oD--kg20EkaEPYL-71" vertex="1">
                    <mxGeometry x="30" width="220" height="30" as="geometry">
                        <mxRectangle width="220" height="30" as="alternateBounds"/>
                    </mxGeometry>
                </mxCell>
                <mxCell id="62" value="" style="shape=tableRow;horizontal=0;startSize=0;swimlaneHead=0;swimlaneBody=0;fillColor=none;collapsible=0;dropTarget=0;points=[[0,0.5],[1,0.5]];portConstraint=eastwest;top=0;left=0;right=0;bottom=0;" parent="tLda2oD--kg20EkaEPYL-51" vertex="1">
                    <mxGeometry y="180" width="250" height="30" as="geometry"/>
                </mxCell>
                <mxCell id="63" value="" style="shape=partialRectangle;connectable=0;fillColor=none;top=0;left=0;bottom=0;right=0;editable=1;overflow=hidden;" parent="62" vertex="1">
                    <mxGeometry width="30" height="30" as="geometry">
                        <mxRectangle width="30" height="30" as="alternateBounds"/>
                    </mxGeometry>
                </mxCell>
                <mxCell id="64" value="message string" style="shape=partialRectangle;connectable=0;fillColor=none;top=0;left=0;bottom=0;right=0;align=left;spacingLeft=6;overflow=hidden;" parent="62" vertex="1">
                    <mxGeometry x="30" width="220" height="30" as="geometry">
                        <mxRectangle width="220" height="30" as="alternateBounds"/>
                    </mxGeometry>
                </mxCell>
                <mxCell id="71" value="" style="edgeStyle=entityRelationEdgeStyle;fontSize=12;html=1;endArrow=ERoneToMany;startArrow=ERmandOne;rounded=0;" edge="1" parent="1" source="tLda2oD--kg20EkaEPYL-58" target="C-vyLk0tnHw3VtMMgP7b-3">
                    <mxGeometry width="100" height="100" relative="1" as="geometry">
                        <mxPoint x="480" y="600" as="sourcePoint"/>
                        <mxPoint x="420" y="245" as="targetPoint"/>
                    </mxGeometry>
                </mxCell>
                <mxCell id="72" value="" style="edgeStyle=entityRelationEdgeStyle;fontSize=12;html=1;endArrow=ERoneToMany;startArrow=ERmandOne;rounded=0;" edge="1" parent="1" source="tLda2oD--kg20EkaEPYL-55" target="C-vyLk0tnHw3VtMMgP7b-14">
                    <mxGeometry width="100" height="100" relative="1" as="geometry">
                        <mxPoint x="790" y="245" as="sourcePoint"/>
                        <mxPoint x="810" y="575" as="targetPoint"/>
                    </mxGeometry>
                </mxCell>
                <mxCell id="74" value="" style="edgeStyle=entityRelationEdgeStyle;fontSize=12;html=1;endArrow=ERoneToMany;startArrow=ERmandOne;rounded=0;" edge="1" parent="1" source="tLda2oD--kg20EkaEPYL-23" target="C-vyLk0tnHw3VtMMgP7b-24">
                    <mxGeometry width="100" height="100" relative="1" as="geometry">
                        <mxPoint x="540" y="215" as="sourcePoint"/>
                        <mxPoint x="470" y="340" as="targetPoint"/>
                    </mxGeometry>
                </mxCell>
            </root>
        </mxGraphModel>
    </diagram>
    <diagram name="Sign In" id="tcKFuDdvqzr0LebYt2Y0">
        <mxGraphModel dx="2074" dy="1166" grid="0" gridSize="10" guides="1" tooltips="1" connect="1" arrows="1" fold="1" page="1" pageScale="1" pageWidth="1920" pageHeight="1200" math="0" shadow="0">
            <root>
                <mxCell id="0"/>
                <mxCell id="1" parent="0"/>
                <mxCell id="6H_qyVeqzwVeCfY1iRy6-2" value="Email" style="html=1;shadow=0;dashed=0;shape=mxgraph.bootstrap.rrect;rSize=5;strokeColor=#000000;;align=left;spacingLeft=10;fontSize=16;whiteSpace=wrap;rounded=0;strokeWidth=2;" parent="1" vertex="1">
                    <mxGeometry x="560" y="500" width="800" height="40" as="geometry"/>
                </mxCell>
                <mxCell id="6H_qyVeqzwVeCfY1iRy6-3" value="Password" style="html=1;shadow=0;dashed=0;shape=mxgraph.bootstrap.rrect;rSize=5;strokeColor=#000000;;align=left;spacingLeft=10;fontSize=16;whiteSpace=wrap;rounded=0;strokeWidth=2;" parent="1" vertex="1">
                    <mxGeometry x="560" y="558" width="800" height="40" as="geometry"/>
                </mxCell>
                <mxCell id="6H_qyVeqzwVeCfY1iRy6-4" value="&lt;font color=&quot;#ffffff&quot;&gt;Login&lt;/font&gt;" style="strokeWidth=1;shadow=0;dashed=0;align=center;html=1;shape=mxgraph.mockup.buttons.button;mainText=;buttonStyle=round;fontSize=17;fontStyle=1;whiteSpace=wrap;fillColor=#000000;" parent="1" vertex="1">
                    <mxGeometry x="560" y="610" width="800" height="50" as="geometry"/>
                </mxCell>
                <mxCell id="1iGAUQ9QDZVu0bg2qafX-1" value="" style="html=1;shadow=0;dashed=0;shape=mxgraph.bootstrap.rect;fillColor=#222222;strokeColor=none;whiteSpace=wrap;rounded=0;fontSize=12;fontColor=#000000;align=center;" parent="1" vertex="1">
                    <mxGeometry width="1920" height="60" as="geometry"/>
                </mxCell>
                <mxCell id="1iGAUQ9QDZVu0bg2qafX-2" value="Covoiturage" style="html=1;shadow=0;dashed=0;fillColor=none;strokeColor=none;shape=mxgraph.bootstrap.rect;fontColor=#999999;fontSize=14;whiteSpace=wrap;" parent="1iGAUQ9QDZVu0bg2qafX-1" vertex="1">
                    <mxGeometry width="192" height="59.99999999999999" as="geometry"/>
                </mxCell>
                <mxCell id="6H_qyVeqzwVeCfY1iRy6-5" value="&lt;font style=&quot;font-size: 16px;&quot; color=&quot;#000000&quot;&gt;Sign Up&lt;/font&gt;" style="text;html=1;align=center;verticalAlign=middle;resizable=0;points=[];autosize=1;strokeColor=none;fillColor=none;fontColor=#FFFFFF;" parent="1" vertex="1">
                    <mxGeometry x="923" y="708" width="75" height="31" as="geometry"/>
                </mxCell>
                <mxCell id="ILsY2CX-Gu7B2ovFIUBy-7" value="&lt;h2&gt;&lt;span style=&quot;font-size: 41px;&quot;&gt;Login&lt;/span&gt;&lt;/h2&gt;" style="text;html=1;align=center;verticalAlign=middle;resizable=0;points=[];autosize=1;strokeColor=none;fillColor=none;fontSize=16;fontColor=#000000;" parent="1" vertex="1">
                    <mxGeometry x="895" y="300" width="130" height="101" as="geometry"/>
                </mxCell>
                <mxCell id="uv75UrwYcbRVOmmdqkvT-1" style="edgeStyle=orthogonalEdgeStyle;rounded=0;orthogonalLoop=1;jettySize=auto;html=1;exitX=1;exitY=0.5;exitDx=0;exitDy=0;entryX=0;entryY=0.5;entryDx=0;entryDy=0;" edge="1" parent="1" source="uv75UrwYcbRVOmmdqkvT-2" target="uv75UrwYcbRVOmmdqkvT-6">
                    <mxGeometry relative="1" as="geometry"/>
                </mxCell>
                <mxCell id="uv75UrwYcbRVOmmdqkvT-2" value="Have a" style="rhombus;whiteSpace=wrap;html=1;" vertex="1" parent="1">
                    <mxGeometry x="1879" y="891" width="80" height="80" as="geometry"/>
                </mxCell>
                <mxCell id="uv75UrwYcbRVOmmdqkvT-3" style="edgeStyle=orthogonalEdgeStyle;rounded=0;orthogonalLoop=1;jettySize=auto;html=1;exitX=1;exitY=0.5;exitDx=0;exitDy=0;entryX=0;entryY=0.5;entryDx=0;entryDy=0;" edge="1" parent="1" source="uv75UrwYcbRVOmmdqkvT-4" target="uv75UrwYcbRVOmmdqkvT-2">
                    <mxGeometry relative="1" as="geometry"/>
                </mxCell>
                <mxCell id="uv75UrwYcbRVOmmdqkvT-4" value="Users" style="whiteSpace=wrap;html=1;aspect=fixed;" vertex="1" parent="1">
                    <mxGeometry x="1729" y="891" width="80" height="80" as="geometry"/>
                </mxCell>
                <mxCell id="uv75UrwYcbRVOmmdqkvT-5" style="edgeStyle=orthogonalEdgeStyle;rounded=0;orthogonalLoop=1;jettySize=auto;html=1;exitX=1;exitY=0.5;exitDx=0;exitDy=0;" edge="1" parent="1" source="uv75UrwYcbRVOmmdqkvT-6" target="uv75UrwYcbRVOmmdqkvT-8">
                    <mxGeometry relative="1" as="geometry"/>
                </mxCell>
                <mxCell id="uv75UrwYcbRVOmmdqkvT-6" value="List of itinaries" style="whiteSpace=wrap;html=1;aspect=fixed;" vertex="1" parent="1">
                    <mxGeometry x="2019" y="891" width="80" height="80" as="geometry"/>
                </mxCell>
                <mxCell id="uv75UrwYcbRVOmmdqkvT-7" style="edgeStyle=orthogonalEdgeStyle;rounded=0;orthogonalLoop=1;jettySize=auto;html=1;exitX=1;exitY=0.5;exitDx=0;exitDy=0;" edge="1" parent="1" source="uv75UrwYcbRVOmmdqkvT-8" target="uv75UrwYcbRVOmmdqkvT-9">
                    <mxGeometry relative="1" as="geometry"/>
                </mxCell>
                <mxCell id="uv75UrwYcbRVOmmdqkvT-8" value="Are linked to&amp;nbsp;" style="rhombus;whiteSpace=wrap;html=1;" vertex="1" parent="1">
                    <mxGeometry x="2179" y="891" width="80" height="80" as="geometry"/>
                </mxCell>
                <mxCell id="uv75UrwYcbRVOmmdqkvT-9" value="Destination" style="whiteSpace=wrap;html=1;aspect=fixed;" vertex="1" parent="1">
                    <mxGeometry x="2329" y="891" width="80" height="80" as="geometry"/>
                </mxCell>
            </root>
        </mxGraphModel>
    </diagram>
    <diagram name="Sign Up" id="goKWq5zaX2E4BVVNi1Dw">
        <mxGraphModel dx="2963" dy="1666" grid="0" gridSize="10" guides="1" tooltips="1" connect="1" arrows="1" fold="1" page="1" pageScale="1" pageWidth="1920" pageHeight="1200" math="0" shadow="0">
            <root>
                <mxCell id="5OTDWQMB7BkZb4bDZpUw-0"/>
                <mxCell id="5OTDWQMB7BkZb4bDZpUw-1" parent="5OTDWQMB7BkZb4bDZpUw-0"/>
                <mxCell id="5OTDWQMB7BkZb4bDZpUw-2" value="Email" style="html=1;shadow=0;dashed=0;shape=mxgraph.bootstrap.rrect;rSize=5;strokeColor=#000000;;align=left;spacingLeft=10;fontSize=16;whiteSpace=wrap;rounded=0;strokeWidth=2;" vertex="1" parent="5OTDWQMB7BkZb4bDZpUw-1">
                    <mxGeometry x="560" y="500" width="800" height="40" as="geometry"/>
                </mxCell>
                <mxCell id="5OTDWQMB7BkZb4bDZpUw-3" value="Password" style="html=1;shadow=0;dashed=0;shape=mxgraph.bootstrap.rrect;rSize=5;strokeColor=#000000;;align=left;spacingLeft=10;fontSize=16;whiteSpace=wrap;rounded=0;strokeWidth=2;" vertex="1" parent="5OTDWQMB7BkZb4bDZpUw-1">
                    <mxGeometry x="560" y="558" width="800" height="40" as="geometry"/>
                </mxCell>
                <mxCell id="5OTDWQMB7BkZb4bDZpUw-4" value="&lt;font color=&quot;#ffffff&quot;&gt;Sign Up&lt;/font&gt;" style="strokeWidth=1;shadow=0;dashed=0;align=center;html=1;shape=mxgraph.mockup.buttons.button;mainText=;buttonStyle=round;fontSize=17;fontStyle=1;whiteSpace=wrap;fillColor=#000000;" vertex="1" parent="5OTDWQMB7BkZb4bDZpUw-1">
                    <mxGeometry x="563" y="848" width="800" height="50" as="geometry"/>
                </mxCell>
                <mxCell id="5OTDWQMB7BkZb4bDZpUw-5" value="" style="html=1;shadow=0;dashed=0;shape=mxgraph.bootstrap.rect;fillColor=#222222;strokeColor=none;whiteSpace=wrap;rounded=0;fontSize=12;fontColor=#000000;align=center;" vertex="1" parent="5OTDWQMB7BkZb4bDZpUw-1">
                    <mxGeometry width="1920" height="60" as="geometry"/>
                </mxCell>
                <mxCell id="5OTDWQMB7BkZb4bDZpUw-6" value="Covoiturage" style="html=1;shadow=0;dashed=0;fillColor=none;strokeColor=none;shape=mxgraph.bootstrap.rect;fontColor=#999999;fontSize=14;whiteSpace=wrap;" vertex="1" parent="5OTDWQMB7BkZb4bDZpUw-5">
                    <mxGeometry width="192" height="59.99999999999999" as="geometry"/>
                </mxCell>
                <mxCell id="5OTDWQMB7BkZb4bDZpUw-7" value="&lt;font style=&quot;font-size: 16px;&quot; color=&quot;#000000&quot;&gt;Sign In&lt;/font&gt;" style="text;html=1;align=center;verticalAlign=middle;resizable=0;points=[];autosize=1;strokeColor=none;fillColor=none;fontColor=#FFFFFF;" vertex="1" parent="5OTDWQMB7BkZb4bDZpUw-1">
                    <mxGeometry x="930" y="946" width="68" height="31" as="geometry"/>
                </mxCell>
                <mxCell id="5OTDWQMB7BkZb4bDZpUw-8" value="&lt;h2&gt;&lt;span style=&quot;font-size: 41px;&quot;&gt;Sign Up&lt;/span&gt;&lt;/h2&gt;" style="text;html=1;align=center;verticalAlign=middle;resizable=0;points=[];autosize=1;strokeColor=none;fillColor=none;fontSize=16;fontColor=#000000;" vertex="1" parent="5OTDWQMB7BkZb4bDZpUw-1">
                    <mxGeometry x="874" y="300" width="173" height="101" as="geometry"/>
                </mxCell>
                <mxCell id="P5EHDxXdDPtRc70p39Ga-0" value="License plate (optionnal)" style="html=1;shadow=0;dashed=0;shape=mxgraph.bootstrap.rrect;rSize=5;strokeColor=#000000;;align=left;spacingLeft=10;fontSize=16;whiteSpace=wrap;rounded=0;strokeWidth=2;" vertex="1" parent="5OTDWQMB7BkZb4bDZpUw-1">
                    <mxGeometry x="560" y="615" width="800" height="40" as="geometry"/>
                </mxCell>
                <mxCell id="P5EHDxXdDPtRc70p39Ga-1" value="Home adresse" style="html=1;shadow=0;dashed=0;shape=mxgraph.bootstrap.rrect;rSize=5;strokeColor=#000000;;align=left;spacingLeft=10;fontSize=16;whiteSpace=wrap;rounded=0;strokeWidth=2;" vertex="1" parent="5OTDWQMB7BkZb4bDZpUw-1">
                    <mxGeometry x="560" y="726" width="800" height="40" as="geometry"/>
                </mxCell>
                <mxCell id="P5EHDxXdDPtRc70p39Ga-2" value="Max passengers (optionnal)" style="html=1;shadow=0;dashed=0;shape=mxgraph.bootstrap.rrect;rSize=5;strokeColor=#000000;;align=left;spacingLeft=10;fontSize=16;whiteSpace=wrap;rounded=0;strokeWidth=2;" vertex="1" parent="5OTDWQMB7BkZb4bDZpUw-1">
                    <mxGeometry x="560" y="670" width="800" height="40" as="geometry"/>
                </mxCell>
                <mxCell id="dChq1eQ74AW0DVOLidP4-0" value="Download your picture" style="html=1;shadow=0;dashed=0;shape=mxgraph.bootstrap.rrect;rSize=5;strokeColor=#000000;;align=center;spacingLeft=10;fontSize=16;whiteSpace=wrap;rounded=0;strokeWidth=2;" vertex="1" parent="5OTDWQMB7BkZb4bDZpUw-1">
                    <mxGeometry x="850.5" y="791" width="227" height="40" as="geometry"/>
                </mxCell>
            </root>
        </mxGraphModel>
    </diagram>
    <diagram name="Itinaries" id="L-dbciXXin4lGVRvt5ZO">
        <mxGraphModel dx="528" dy="387" grid="0" gridSize="10" guides="1" tooltips="1" connect="1" arrows="1" fold="1" page="1" pageScale="1" pageWidth="1920" pageHeight="1200" math="0" shadow="0">
            <root>
                <mxCell id="0"/>
                <mxCell id="1" parent="0"/>
                <mxCell id="WqvF8dZOp0ESFUwbwRZ--4" value="" style="html=1;shadow=0;dashed=0;shape=mxgraph.bootstrap.rect;fillColor=#222222;strokeColor=none;whiteSpace=wrap;rounded=0;fontSize=12;fontColor=#000000;align=center;" parent="1" vertex="1">
                    <mxGeometry width="1920" height="60" as="geometry"/>
                </mxCell>
                <mxCell id="WqvF8dZOp0ESFUwbwRZ--5" value="Joseph" style="html=1;shadow=0;dashed=0;fillColor=none;strokeColor=none;shape=mxgraph.bootstrap.rect;fontColor=#999999;fontSize=14;whiteSpace=wrap;" parent="WqvF8dZOp0ESFUwbwRZ--4" vertex="1">
                    <mxGeometry width="192" height="59.99999999999999" as="geometry"/>
                </mxCell>
                <mxCell id="WqvF8dZOp0ESFUwbwRZ--6" value="&lt;font style=&quot;font-size: 20px;&quot;&gt;Log &lt;/font&gt;&lt;font style=&quot;font-size: 20px;&quot;&gt;Out&lt;/font&gt;" style="html=1;shadow=0;dashed=0;fillColor=none;strokeColor=none;shape=mxgraph.bootstrap.rect;fontColor=#999999;whiteSpace=wrap;" parent="WqvF8dZOp0ESFUwbwRZ--4" vertex="1">
                    <mxGeometry x="1752" width="168" height="59.99999999999999" as="geometry"/>
                </mxCell>
                <mxCell id="RyEkeSQvwajlWsaek8AC-32" value="&lt;font style=&quot;font-size: 20px;&quot;&gt;My Itinaries&lt;/font&gt;" style="html=1;shadow=0;dashed=0;fillColor=none;strokeColor=none;shape=mxgraph.bootstrap.rect;fontColor=#999999;whiteSpace=wrap;" parent="WqvF8dZOp0ESFUwbwRZ--4" vertex="1">
                    <mxGeometry x="1605" width="168" height="59.99999999999999" as="geometry"/>
                </mxCell>
                <mxCell id="RyEkeSQvwajlWsaek8AC-33" value="&lt;font style=&quot;font-size: 20px;&quot;&gt;Itinaries&lt;/font&gt;" style="html=1;shadow=0;dashed=0;fillColor=none;strokeColor=none;shape=mxgraph.bootstrap.rect;fontColor=#999999;whiteSpace=wrap;flipV=1;flipH=1;" parent="WqvF8dZOp0ESFUwbwRZ--4" vertex="1">
                    <mxGeometry x="1460" width="168" height="59.99999999999999" as="geometry"/>
                </mxCell>
                <mxCell id="RyEkeSQvwajlWsaek8AC-35" value="&lt;font style=&quot;font-size: 20px;&quot;&gt;Publish initary&lt;/font&gt;" style="html=1;shadow=0;dashed=0;fillColor=none;strokeColor=none;shape=mxgraph.bootstrap.rect;fontColor=#999999;whiteSpace=wrap;flipV=1;flipH=1;" parent="WqvF8dZOp0ESFUwbwRZ--4" vertex="1">
                    <mxGeometry x="1313" width="168" height="59.99999999999999" as="geometry"/>
                </mxCell>
                <mxCell id="RyEkeSQvwajlWsaek8AC-1" value="" style="html=1;shadow=0;dashed=0;shape=mxgraph.bootstrap.rrect;rSize=5;strokeColor=#dddddd;rounded=0;fontSize=12;align=center;" parent="1" vertex="1">
                    <mxGeometry x="22" y="80" width="330" height="409" as="geometry"/>
                </mxCell>
                <mxCell id="RyEkeSQvwajlWsaek8AC-2" value="320x200" style="shape=rect;fontSize=24;fillColor=#f0f0f0;strokeColor=none;fontColor=#999999;whiteSpace=wrap;" parent="RyEkeSQvwajlWsaek8AC-1" vertex="1">
                    <mxGeometry x="5" y="5.1125" width="320" height="129.8575" as="geometry"/>
                </mxCell>
                <mxCell id="RyEkeSQvwajlWsaek8AC-3" value="Alma" style="html=1;shadow=0;dashed=0;shape=mxgraph.bootstrap.anchor;fontSize=26;align=left;whiteSpace=wrap;" parent="RyEkeSQvwajlWsaek8AC-1" vertex="1">
                    <mxGeometry x="13" y="155.42" width="300" height="40.9" as="geometry"/>
                </mxCell>
                <mxCell id="RyEkeSQvwajlWsaek8AC-5" value="More" style="html=1;shadow=0;dashed=0;shape=mxgraph.bootstrap.rrect;rSize=5;fontSize=16;fillColor=#3D8BCD;strokeColor=none;fontColor=#ffffff;whiteSpace=wrap;" parent="RyEkeSQvwajlWsaek8AC-1" vertex="1">
                    <mxGeometry y="1" width="80" height="40" relative="1" as="geometry">
                        <mxPoint x="15" y="-60" as="offset"/>
                    </mxGeometry>
                </mxCell>
                <mxCell id="RyEkeSQvwajlWsaek8AC-21" value="&lt;font style=&quot;font-size: 17px;&quot;&gt;Jhon Doe&lt;/font&gt;" style="html=1;shadow=0;dashed=0;shape=mxgraph.bootstrap.anchor;fontSize=26;align=left;whiteSpace=wrap;" parent="RyEkeSQvwajlWsaek8AC-1" vertex="1">
                    <mxGeometry x="13" y="192.23" width="300" height="40.9" as="geometry"/>
                </mxCell>
                <mxCell id="RyEkeSQvwajlWsaek8AC-22" value="&lt;font style=&quot;font-size: 17px;&quot;&gt;3 places disponibles&lt;/font&gt;" style="html=1;shadow=0;dashed=0;shape=mxgraph.bootstrap.anchor;fontSize=26;align=left;whiteSpace=wrap;" parent="RyEkeSQvwajlWsaek8AC-1" vertex="1">
                    <mxGeometry x="13" y="228.01749999999998" width="300" height="40.9" as="geometry"/>
                </mxCell>
                <mxCell id="t6S8o9rvH-XqAdFitjGJ-1" value="&lt;font style=&quot;font-size: 17px;&quot;&gt;4 février 2023&lt;/font&gt;" style="html=1;shadow=0;dashed=0;shape=mxgraph.bootstrap.anchor;fontSize=26;align=left;whiteSpace=wrap;" parent="RyEkeSQvwajlWsaek8AC-1" vertex="1">
                    <mxGeometry x="13" y="259.71750000000003" width="300" height="40.9" as="geometry"/>
                </mxCell>
                <mxCell id="t6S8o9rvH-XqAdFitjGJ-9" value="&lt;font style=&quot;font-size: 17px;&quot;&gt;12:30&lt;/font&gt;" style="html=1;shadow=0;dashed=0;shape=mxgraph.bootstrap.anchor;fontSize=26;align=left;whiteSpace=wrap;" parent="RyEkeSQvwajlWsaek8AC-1" vertex="1">
                    <mxGeometry x="13" y="294.995" width="300" height="40.9" as="geometry"/>
                </mxCell>
                <mxCell id="RyEkeSQvwajlWsaek8AC-20" value="" style="verticalLabelPosition=bottom;shadow=0;dashed=0;align=center;html=1;verticalAlign=top;strokeWidth=1;shape=mxgraph.mockup.navigation.scrollBar;strokeColor=#999999;barPos=100;fillColor2=#99ddff;strokeColor2=none;direction=north;fontSize=41;fontColor=#000000;fillColor=#000000;" parent="1" vertex="1">
                    <mxGeometry x="387" y="58" width="20" height="1140" as="geometry"/>
                </mxCell>
                <mxCell id="RyEkeSQvwajlWsaek8AC-34" value="" style="verticalLabelPosition=bottom;shadow=0;dashed=0;align=center;html=1;verticalAlign=top;strokeWidth=1;shape=mxgraph.mockup.misc.map;strokeColor=#000000;fontSize=20;fontColor=#000000;fillColor=#000000;" parent="1" vertex="1">
                    <mxGeometry x="533" y="126" width="1282" height="709" as="geometry"/>
                </mxCell>
                <mxCell id="RyEkeSQvwajlWsaek8AC-36" value="Climb on board" style="strokeWidth=1;shadow=0;dashed=0;align=center;html=1;shape=mxgraph.mockup.buttons.button;strokeColor=#666666;fontColor=#ffffff;mainText=;buttonStyle=round;fontSize=17;fontStyle=1;fillColor=#008cff;whiteSpace=wrap;" parent="1" vertex="1">
                    <mxGeometry x="1686" y="1061" width="150" height="50" as="geometry"/>
                </mxCell>
                <mxCell id="t6S8o9rvH-XqAdFitjGJ-11" value="" style="html=1;shadow=0;dashed=0;shape=mxgraph.bootstrap.rrect;rSize=5;strokeColor=#dddddd;rounded=0;fontSize=12;align=center;" parent="1" vertex="1">
                    <mxGeometry x="22" y="514" width="330" height="409" as="geometry"/>
                </mxCell>
                <mxCell id="t6S8o9rvH-XqAdFitjGJ-12" value="320x200" style="shape=rect;fontSize=24;fillColor=#f0f0f0;strokeColor=none;fontColor=#999999;whiteSpace=wrap;" parent="t6S8o9rvH-XqAdFitjGJ-11" vertex="1">
                    <mxGeometry x="5" y="5.1125" width="320" height="129.8575" as="geometry"/>
                </mxCell>
                <mxCell id="t6S8o9rvH-XqAdFitjGJ-13" value="UCL" style="html=1;shadow=0;dashed=0;shape=mxgraph.bootstrap.anchor;fontSize=26;align=left;whiteSpace=wrap;" parent="t6S8o9rvH-XqAdFitjGJ-11" vertex="1">
                    <mxGeometry x="13" y="155.42" width="300" height="40.9" as="geometry"/>
                </mxCell>
                <mxCell id="t6S8o9rvH-XqAdFitjGJ-14" value="More" style="html=1;shadow=0;dashed=0;shape=mxgraph.bootstrap.rrect;rSize=5;fontSize=16;fillColor=#3D8BCD;strokeColor=none;fontColor=#ffffff;whiteSpace=wrap;" parent="t6S8o9rvH-XqAdFitjGJ-11" vertex="1">
                    <mxGeometry y="1" width="80" height="40" relative="1" as="geometry">
                        <mxPoint x="15" y="-60" as="offset"/>
                    </mxGeometry>
                </mxCell>
                <mxCell id="t6S8o9rvH-XqAdFitjGJ-15" value="&lt;font style=&quot;font-size: 17px;&quot;&gt;Katarina Urgot&lt;/font&gt;" style="html=1;shadow=0;dashed=0;shape=mxgraph.bootstrap.anchor;fontSize=26;align=left;whiteSpace=wrap;" parent="t6S8o9rvH-XqAdFitjGJ-11" vertex="1">
                    <mxGeometry x="13" y="192.23" width="300" height="40.9" as="geometry"/>
                </mxCell>
                <mxCell id="t6S8o9rvH-XqAdFitjGJ-16" value="&lt;font style=&quot;font-size: 17px;&quot;&gt;3 places disponibles&lt;/font&gt;" style="html=1;shadow=0;dashed=0;shape=mxgraph.bootstrap.anchor;fontSize=26;align=left;whiteSpace=wrap;" parent="t6S8o9rvH-XqAdFitjGJ-11" vertex="1">
                    <mxGeometry x="13" y="228.01749999999998" width="300" height="40.9" as="geometry"/>
                </mxCell>
                <mxCell id="t6S8o9rvH-XqAdFitjGJ-17" value="&lt;font style=&quot;font-size: 17px;&quot;&gt;5 février 2023&lt;/font&gt;" style="html=1;shadow=0;dashed=0;shape=mxgraph.bootstrap.anchor;fontSize=26;align=left;whiteSpace=wrap;" parent="t6S8o9rvH-XqAdFitjGJ-11" vertex="1">
                    <mxGeometry x="13" y="259.71750000000003" width="300" height="40.9" as="geometry"/>
                </mxCell>
                <mxCell id="t6S8o9rvH-XqAdFitjGJ-18" value="&lt;font style=&quot;font-size: 17px;&quot;&gt;8:30&lt;/font&gt;" style="html=1;shadow=0;dashed=0;shape=mxgraph.bootstrap.anchor;fontSize=26;align=left;whiteSpace=wrap;" parent="t6S8o9rvH-XqAdFitjGJ-11" vertex="1">
                    <mxGeometry x="13" y="294.995" width="300" height="40.9" as="geometry"/>
                </mxCell>
            </root>
        </mxGraphModel>
    </diagram>
    <diagram name="Publish Itinary" id="la9fCulIK--auednQLrd">
        <mxGraphModel dx="2963" dy="1666" grid="0" gridSize="10" guides="1" tooltips="1" connect="1" arrows="1" fold="1" page="1" pageScale="1" pageWidth="1920" pageHeight="1200" math="0" shadow="0">
            <root>
                <mxCell id="0"/>
                <mxCell id="1" parent="0"/>
                <mxCell id="ts-qxWbgxioey6TI2K9r-1" value="" style="html=1;shadow=0;dashed=0;shape=mxgraph.bootstrap.rect;fillColor=#222222;strokeColor=none;whiteSpace=wrap;rounded=0;fontSize=12;fontColor=#000000;align=center;" vertex="1" parent="1">
                    <mxGeometry width="1920" height="60" as="geometry"/>
                </mxCell>
                <mxCell id="ts-qxWbgxioey6TI2K9r-2" value="Joseph" style="html=1;shadow=0;dashed=0;fillColor=none;strokeColor=none;shape=mxgraph.bootstrap.rect;fontColor=#999999;fontSize=14;whiteSpace=wrap;" vertex="1" parent="ts-qxWbgxioey6TI2K9r-1">
                    <mxGeometry width="192" height="59.99999999999999" as="geometry"/>
                </mxCell>
                <mxCell id="ts-qxWbgxioey6TI2K9r-3" value="&lt;font style=&quot;font-size: 20px;&quot;&gt;Log &lt;/font&gt;&lt;font style=&quot;font-size: 20px;&quot;&gt;Out&lt;/font&gt;" style="html=1;shadow=0;dashed=0;fillColor=none;strokeColor=none;shape=mxgraph.bootstrap.rect;fontColor=#999999;whiteSpace=wrap;" vertex="1" parent="ts-qxWbgxioey6TI2K9r-1">
                    <mxGeometry x="1752" width="168" height="59.99999999999999" as="geometry"/>
                </mxCell>
                <mxCell id="ts-qxWbgxioey6TI2K9r-4" value="&lt;font style=&quot;font-size: 20px;&quot;&gt;My Itinaries&lt;/font&gt;" style="html=1;shadow=0;dashed=0;fillColor=none;strokeColor=none;shape=mxgraph.bootstrap.rect;fontColor=#999999;whiteSpace=wrap;" vertex="1" parent="ts-qxWbgxioey6TI2K9r-1">
                    <mxGeometry x="1605" width="168" height="59.99999999999999" as="geometry"/>
                </mxCell>
                <mxCell id="ts-qxWbgxioey6TI2K9r-5" value="&lt;font style=&quot;font-size: 20px;&quot;&gt;Itinaries&lt;/font&gt;" style="html=1;shadow=0;dashed=0;fillColor=none;strokeColor=none;shape=mxgraph.bootstrap.rect;fontColor=#999999;whiteSpace=wrap;flipV=1;flipH=1;" vertex="1" parent="ts-qxWbgxioey6TI2K9r-1">
                    <mxGeometry x="1460" width="168" height="59.99999999999999" as="geometry"/>
                </mxCell>
                <mxCell id="ts-qxWbgxioey6TI2K9r-6" value="&lt;font style=&quot;font-size: 20px;&quot;&gt;Publish initary&lt;/font&gt;" style="html=1;shadow=0;dashed=0;fillColor=none;strokeColor=none;shape=mxgraph.bootstrap.rect;fontColor=#999999;whiteSpace=wrap;flipV=1;flipH=1;" vertex="1" parent="ts-qxWbgxioey6TI2K9r-1">
                    <mxGeometry x="1313" width="168" height="59.99999999999999" as="geometry"/>
                </mxCell>
                <mxCell id="ts-qxWbgxioey6TI2K9r-23" value="Publish" style="strokeWidth=1;shadow=0;dashed=0;align=center;html=1;shape=mxgraph.mockup.buttons.button;strokeColor=#666666;fontColor=#ffffff;mainText=;buttonStyle=round;fontSize=17;fontStyle=1;fillColor=#008cff;whiteSpace=wrap;" vertex="1" parent="1">
                    <mxGeometry x="1615" y="1050" width="180" height="55" as="geometry"/>
                </mxCell>
                <mxCell id="09wOqwm1VxSM-2HJV69d-1" value="&lt;font style=&quot;font-size: 50px;&quot;&gt;Choose the University&lt;/font&gt;" style="text;html=1;align=center;verticalAlign=middle;resizable=0;points=[];autosize=1;strokeColor=none;fillColor=none;fontSize=20;fontColor=#000000;" vertex="1" parent="1">
                    <mxGeometry x="707" y="157" width="507" height="72" as="geometry"/>
                </mxCell>
                <mxCell id="09wOqwm1VxSM-2HJV69d-2" value="&lt;font style=&quot;font-size: 25px;&quot;&gt;Alma&lt;/font&gt;" style="strokeWidth=1;shadow=0;dashed=0;align=center;html=1;shape=mxgraph.mockup.buttons.button;strokeColor=#666666;fontColor=#ffffff;mainText=;buttonStyle=round;fontSize=17;fontStyle=1;fillColor=#000000;whiteSpace=wrap;" vertex="1" parent="1">
                    <mxGeometry x="613" y="248" width="200" height="200" as="geometry"/>
                </mxCell>
                <mxCell id="09wOqwm1VxSM-2HJV69d-3" value="&lt;font style=&quot;font-size: 25px;&quot;&gt;ULB&lt;/font&gt;" style="strokeWidth=1;shadow=0;dashed=0;align=center;html=1;shape=mxgraph.mockup.buttons.button;strokeColor=#666666;fontColor=#ffffff;mainText=;buttonStyle=round;fontSize=17;fontStyle=1;fillColor=#000000;whiteSpace=wrap;" vertex="1" parent="1">
                    <mxGeometry x="863" y="248" width="200" height="200" as="geometry"/>
                </mxCell>
                <mxCell id="09wOqwm1VxSM-2HJV69d-4" value="&lt;font style=&quot;font-size: 25px;&quot;&gt;UCL&lt;/font&gt;" style="strokeWidth=1;shadow=0;dashed=0;align=center;html=1;shape=mxgraph.mockup.buttons.button;strokeColor=#666666;fontColor=#ffffff;mainText=;buttonStyle=round;fontSize=17;fontStyle=1;fillColor=#000000;whiteSpace=wrap;" vertex="1" parent="1">
                    <mxGeometry x="1107" y="248" width="200" height="200" as="geometry"/>
                </mxCell>
                <mxCell id="PoX6CVP6PoXjSFqukIj3-5" value="" style="shape=image;verticalLabelPosition=bottom;labelBackgroundColor=default;verticalAlign=top;aspect=fixed;imageAspect=0;image=data:image/png,iVBORw0KGgoAAAANSUhEUgAAAKYAAAA0CAYAAAAAJkM/AAAF+0lEQVR4nO3c4W/STBwH8C/PKj00BbaspC6BoYSlRpIR90Jf+GJ/Oi9M1BcjvOiyBuLsJDENLLRQQ+8Qw/PCtLGDzk07W+fv844Wrtf1u7vrHTS3Wq1WICRj/ku7AoRsQsEkmUTBJJlEwSSZRMEkmUTBJJlEwSSZJN3kTZPJBJ7nYbFYgKY9CQDkcjnk83koioKdnZ3ky79ugv3r16/4/PkzZFlGqVQCYwy5XC7xSpC/z2q1Aucc0+kUQgjs7e3hwYMHiZV/bTAvLi5QLBaxvb2d2AHJ/eM4DmazGfb39xMrM3aMOZlMIMsyhZL81Pb2NmRZxmQySazM2GB6nodSqZTYgcj9ViqV4HleYuXFBnOxWIAxltiByP3GGMNisUisvNhgrlYrutEhN5bL5RKdsaF5TJJJFEySSTeaYCf3j2VZcF0XruuCMYZyuQzGGOr1etpVA0DB/Oe4rgvTNAEAmqaFQeScw7ZtvHv3Drquo1wup1nNZIO5XC5hmiYuLy/DbXt7ezg4OLjR54UQMAwDtVoNqqr+cj2EEDBNE0+ePEGxWPzp/uFwiOl0Cl3XIUn393/VdV30ej3U6/WNLWO5XIZt2+j1emi326mGM7GrEISyVCqh1WpFthmGkemLXq1WUa1W067GnTNNcy2Utm1v7MpN08SrV6/SqmpywZzP5xBCRCblJUlCrVbDYDDAfD4PW6/hcIgPHz4AAAqFAp49e7axZbvaAu/u7kYCPpvNcHZ2Bt/3AQCNRgOVSgWGYcDzPDiOg+fPn0da36BV/nF/sOar6zrm8zk+fvwIVVXR7/cBfG/1NU0Lj6UoClqtFmRZvtX5pMmyrI1jSM45OOeR1lHTNLiuC8uyUhtzJhbM4CLZth25KMViEUdHR+HroNt8/fo1JEnCeDzGYDAIW9nApha43+/j/PwcBwcHEEJgMBjg6dOnUFU1DBxjDK1WK7Yrl2V5bf9wOIy8h3OOL1++4Pj4OAy/53lot9vY2tqCaZoYjUaoVqvXnk/wN8mCq+G7TtCCuq57x7WKl9h0kSzLaDabcBwHnU4HnU4H79+/x2w2C98jhMBkMkGtVgtbPVVVoSgKRqNRpDzHcQAAjx8/Drft7+/D933MZjOMRqPIWr4syzg6OvqtsWlAkiRomgYAePjwIR49eoRKpQJZliFJEkqlEnzfv9X5pC24+76pcrkMzvkd1uh6iQ76isUiXr58CQAYj8c4PT1Ft9sNu2AhBDjn6Ha7a59tNBqR15xzXF5e4s2bN5HthUIBAOD7PvL5/B8bt266qLc5nyyIC6bruuCcR/YHXXxa7uyqqqqK4+PjsIt1HCdscV68eBF7t/yjq2PKH9m2fVdVv5XrzidLGGNwXXetO6/X6zBNM7wTD8LJOQ97jTQk1pUPh0MYhoHlchnZvrW1BVmWwTkPx1xXA7gJYwxCCHz79m3j/kKhgMVisXa8P+k255M2TdNi/5l1XUe9Xo+MKW/b9SctsWBWKhUIIXB+fh7Z7jgOhBDhGK1SqeDTp0/hxRRC4OTkBOPxOPK54Dt+FxcX4bbxeIyTk5OwPCFEOBZdLpcwDGPtRuYu3eZ80ha0lJZlbdyvaVrYQlqWBc55qqtAid6VHx4ewjRNdDqdcPvu7i4ODw/D7rharcL3fbx9+zZ8TzCl82PLI0kSms0mDMMIy7s6TdNsNnF2dobT01MA36d1gvnIQqGAbreLRqOxNkcpy3Jk/++47nyyhDEGXdfDVZ+40FmWBcuy0G63/2T11sT+tKLf7994xYb8PTjn6PV6AL63kkFL6rpu2NX/6pJkkpnJ5lIMuTOMMbTb7fALHEELyhiLrJ2njYL5DwpCmOZd98/Q9zFJJlEwSSbFBjPp33CQ+y3p34jFBjOfz6e6JEX+Lpxz5PP5xMqLDaaiKJhOp4kdiNxv0+kUiqIkVl5sMHd2diIrK4TECVb3kny4Fj1Ui/ySVB+qFaDHEJKrUn0MISFpoXlMkkkUTJJJFEySSRRMkkkUTJJJFEySSRRMkkkUTJJJFEySSRRMkkkUTJJJ/wP54vSYYziX3AAAAABJRU5ErkJggg==;" vertex="1" parent="1">
                    <mxGeometry x="1020" y="729.72" width="303.27" height="95" as="geometry"/>
                </mxCell>
                <mxCell id="PoX6CVP6PoXjSFqukIj3-6" value="" style="shape=image;verticalLabelPosition=bottom;labelBackgroundColor=default;verticalAlign=top;aspect=fixed;imageAspect=0;image=data:image/png,iVBORw0KGgoAAAANSUhEUgAAAT8AAAFWCAYAAAAfXZo5AAAgAElEQVR4nO3dYVAbZ5on8L8NC0bQELyWsLwD0jhFhlRM4RXHbLFYwXc1cQjrwTXipi5rez5sbQXE1Nydvd7aMlbVEOaGs2tmE3u3vEHy7t7ulh1vprJwZc7BOt9NTRLZw+QUacLgzLBm7bRghjbIa1tqkIAI933QdltCAgkbdbfTz6+KmlF3Cz283f3X+77dTm8SBEEAIYRozGalCyCEECVQ+BFCNInCjxCiSRR+hBBNovAjhGgShR8hRJMo/AghmkThRwjRJAo/QogmUfgRQjSJwo8QokkUfoQQTcpf7xuWl5extLSEWCyGhw8f5qImQgjJaPPmzcjPz0dBQQHy8vLW/f5N6/mvukSjUcRiMWzZsgX5+fnYtGnTuj+QEEI2giAIiMViWFhYQH5+PoqKitb1/qzDb35+Hps2bYJOp3usQgkhJFcikQgEQUBxcXHW78lqzi8ajVLwEUJUS6fTYdOmTYhGo1m/J2P4LS8vIxaLUfARQlRNp9MhFotheXk5q+0zht/S0hK2bNnyxIURQkiubdmyBUtLS1ltmzH8YrEY8vPXfVGYEEJkl5+fj1gsltW2GcPv4cOHdFWXEPJU2LRpU9a34NFNzoQQTaLwI4RoEoUfIUSTKPwIIZpE4UcI0STV3sOysLCAe/fuYX5+Huv458eatGnTJhQXF2Pr1q1Z35NJ7ft47Tbwc2DgE+Bf54FPfp3jAmX21crP8cZLnyldRorH2U/ZUGX4LSwsYGpqCnq9Htu3b8fmzdRBXcvDhw8RDocxNTWFysrKjAcItW/cettt4OfA216guRr4r/9epiJlVHH8t/Dcc88pXUYKcT9NTk6iqqpqwwJQlUf9vXv3oNfr8cwzz2j2xFyPzZs345lnnoFer8e9e/cybk/tG7fedvunnwN7n/tiBp+aifvJYDBktZ+y/r0b9ps20Pz8PEpLS5Uu46lTWlqK+fn5jNtR+ybLtt3uRYD/sleGgkha2e6nbKky/ARB0HSP5HFt3rw5q/k7at9k2bbbF22O72mT7X7K+vdt2G8ihJCnCIUfIUSTntrwc7lcMJvNMJvNaG5uht/vX3V9R0cHeJ7P6r1+vx/Nzc3SeofDIdvfpBY8z6OjoyOl3RK5XK607a5lD6LA1/4y/vNglf+mZs97wM7vAtdu5baGf/x443+3w+FIez44HA64XK6N/8AceyrDj+M4RKNRsCwLlmXR3d2N3t5ecBwHAHC73RgeHsbIyAhYloVer8epU6eyeu8vf/lLnD59GizLYmRkBDdu3IDb7c7J33Hnzh0sLCysun5hYQF37tzJyWdnUlxcjDt37uD69esp6ziOw/DwsAJVxam53UoKgRkeuPJp6rrJe8DgJxv7edduAY1/Hv/dufad73wHgUAgpbMQiURw8ODB3BewwZ7K8DMajThy5Ij0uqmpCRUVFRgdHQUAeDwetLa2wmg0AgDa29sRCATAcVzG9x4+fBgWi0X6nF27diEQCOTk71hYWMAnn6x+NoyPj695kufS/Pw8GIaBx+NJWTc0NISKigpUVlYqUJm6221uESguAC6Ppa772xGgggEqntIL7UajEVarFQMDAwDiIwSn04mXX34ZDMMoXN36PZXht9Lc3BwikQgMBgM4jkMgEEBDQ4O0vrq6GjqdTgq41d67kt/vRyAQQFtbW07q3r59O7Zs2QKWZVPWicvMZnNOPjsbr7zySso3Pc/zGB8fh81mS9qW4zgcOHAg7VSDy+XC0aNH0dHRsSFDZbW32zctwO1/TR7aPogCo78G/vj3U7fveQ+oOP7op+e9R+v+8eP4MPbY4KP1h/7u0br2vwZu3wUafvBoOQBMh4Davvj2GznMbmtrk44JcVTQ1NQEID7iWm06KXGqyWw2S6MpcYrlzJkzaG5uXnOqZaN9IcJvaGgIOp0O1dXVT/xecWeYzWY4nU709/dLPciNtmXLFtTU1IBlWTx48EBa/uDBA7Asi5qampx8bra2bduW9E0PANevX8f8/Dx27tyZtO3o6Ci6urqk6YKZmZmkIbPf74fdbscHH3wg9awfl9rbbUcZsO95oP/DR8uufBrvFb6w4lDqeS8+FPb+GTBzKv6/g58kz9mNTf/bcPoUMPAaMPJZfP0f/rv4653b4u97+48evefvfwa81xV/T+OXgdffW30ecj3E3t/58+cxODgIm80GhmHgdrvR398vTTV1d3fD6XSC53nwPI9oNIqxsTFp3eDgYFLI/fKXv8Tly5dx7tw52XqRT334uVwuDA8Po7e3d92Nlu69DMPg3LlzYFkWdrsd+/fvz9mcH/DoRE4cqo2Pj2P37t2qeHZKQ0ODNGXA83zSAZ+opaUFLS0tANJPF+zZs+eJQy+R2tvtpZp472/yXjx0/van8V7fMwmPln0QBa7fAk68DFRtjS+r2grYdicPm2t3AEf/Q/z/73k2HmbjM2t/fuLv7HoRmF8CwhsQfgBw8OBB6WZjsde3cqqpqakJxcXFmJiYAMMwOHLkiHTMNDQ0IBKJYG5uTvqd6Y6pXFPlv+3NBs/zOHbsGPR6PS5dupRx++LiYmlom+17LRaL9C3V1NSUs52zfft2LCwsYHx8HADwzDPP4JlnnsnJZ62XxWKByWTC0NCQdNDW1dWlbCe26dWrV6Vl3d3dOa1Nze2251lg52/H5/leqomHT1NyZxnhaHx5ZXny8pqKeChuRE8tFxiGgV6vR1VVFRiGAc/zCAaDePvtt3Hy5MmkbV9++WUA8SGx3W6Xlqc7huT2VIafeKLZbDaptyEqKSmBTqfD7OystGxiYgLBYBBGo3HN9ypp+/btePDgARYWFrB7926ly0nS3t6O8+fPY3x8HFarFUajUbo6DiTvj3PnzgGAbLcIqbndul4E/vz/xuf69j0f74klXpUtLYpfHJm6n/reCia5l6hmYhg6nc6055Tb7cbg4CDGxsbAMAz8fj/efPNNBSpN9lQOe1dOtCZiGAY2mw39/f3SCTowMACTyQSj0bjme3mex5kzZ6S5CI7j0N/fj/r6+px3ycVhnNpOYCB+wWh+fh63b99Oe/Fn5UUjjuNw48YNWWpTc7vt2hGf57t1F/jjxtT1zxQBTc8C//1/PwrFyXvx1/tr5a31SVmt1qRzLlEgEIBer5fOIa/XK9tFjbU8lT0/ALh69Spqa5OPkEOHDqGvrw8tLS0IBAJobGxMWp7Ne4PBYNK67u5udHZ25vAveUQNc1XpiF8oHo8n7cUfcRJcvAJcV1eHiooK2epTa7s9UxSf57s89mj+baXeP4j/b8MPHi078x/jFzOyIQ6vG34AfO0rwF+9+mQ1P66V5xwA7Nu3D2+88Qba2tpgt9ulK/Df+MY3VHFrzCYhw78UDoVCKCsrk6seAMDNmzdV+d8Vexpk03bUvqmyaZOK4/Grp19UT8Pfl81+yjaznsphLyGEPCkKP0KIJqky/Nbz1HXyyMOHD7Fp06aM21H7Jsu23XZ/SYZiyKqy3U/ZUmX4FRcXIxwOK13GUyccDqO4uDjjdtS+ybJtt98uBv7iJzIURNLKdj9lS5Xht3XrVgSDQTx48IB6KFl4+PAhHjx4gGAwiK1bV7msmIDaN2697da+G3h/AviL92UojkjE/TQ7O5vVfsqWKq/2AvRoxfWgR1c+nid5dOW9CPDzqRwXKLMvyqMrs80s1YYfIYQ8DrrVhRBC1kDhRwjRJAo/QogmUfgRQjSJwo8QokkUfoQQTaLwI4RoEoUfIUSTKPwIIZpE4UcI0SQKP0KIJmX1DI9QKJTrOgghRFZZhR/9hw0IIU+LbDtrNOwlhGgShR8hRJMo/AghmkThRwjRJAo/QogmUfgRQjSJwo8QokkUfoQQTaLwI4RoEoUfIUSTKPwIIZqU8/Bzu90wm83Sj8PhyPVHZo3neXR0dKCjowM8z6fdxuVyobm5GX6/X+bq0lvZnok/brdb6fKkNnW5XEnL/X4/2traUtrR4XCkbKsEh8ORtk0PHDgAjuPgcrlUdewC8TZtbm5OqnetY1kp4jEh1qiW8ymr/7DB43K5XPD5fBgbGwPDMACACxcugOd56bXSiouLcevWLVy/fh0tLS1J6ziOw/DwsEKVpdfS0gKWZQHE23dychJ9fX0KV/UIwzCor6/H5ORk0nKv14tf/OIX8Hq9sFgsAOInRTAYhNVqVaLUJH19fejr6wPP8zh27BhsNlvK8aBGlZWVeOedd2A0GpUuJS2O42C329HV1YVz584BiIf2/Py8wpXluOc3OTmJ+vr6pKA7fPiwaoIPAObn58EwDDweT8q6oaEhVFRUoLKyUoHKnl4mkwk3btwAx3EA4iHn8/nQ1NSUFIoTExOIRCKoq6tTqlSSYxzHgWGYpH1ssVhU8YWX0/CrqqqCz+dL2w3nOA6HDx9O6v663W5Fuu2vvPIKAoFAUi08z2N8fBw2my1le5fLlTTUUMOwTeT3+3H48GEpeADIPmSrq6sDwzBSDXNzcwCAb33rWwgEAtJyr9cLk8kk9VoS21UcbqpN4vBYTft9JfFcOnr0qKJTIkajETzPY3R0NO36lUNiOfd7TsOvs7MTer0etbW1qj5Qtm3bBqvVioGBAWnZ9evXMT8/j507dyZt63K5MDw8jJGREbAsi5GREQwPD6tivk0tjEYjTCYTvF4vAGB0dBR6vR5NTU3Q6/XSwT05OYmqqioAyVMkLMuitbUVZ8+eVexvSOftt9+G1WoFy7JwOp24ePGiKuauVnP16lW8/PLLYFlWsSG80WhET08PTp48mTbYJiYm8OKLL4JlWYyNjaGiogJDQ0Oy1JbzCx59fX0YGxuDz+dTzURnOg0NDVKvhOd5DA4OwmazJQ3RxeFbV1eX1FsxGo1obW1NO2zWMqvVKvX6PR4PqqqqwDAMdDodvF4vOI5DIBBAQ0OD1K6J7d3W1oZgMKiq3t+hQ4ekEGlqasJXvvIVzM7OKlrT1NQUGhsb0/ZG9+3bh6amJgWri7NYLPjggw/Q1dWFxsbGpFGIxWLB4cOHAaw+X5wrstzqwjAMzp07h+7ubvT29qrqgBZZLBaYTCYMDQ2tOhc1NzeHSCQCg8GQtNxkMiEYDKruKpuSDAYDIpEIOI5DJBJBQ0MDgEeh+C//8i/Q6/Worq7G3NwcZmZmYLfbpZO4sbER//zP/6zKY0VNKisrpVEIy7Lo7OxUuqRVtbS0YGxsDMFgMCmkE6cSTp48KVs9Ob3au1LiXJAar061t7fj/PnzGB8fh9VqhdFoTDr5SkpKoNPp0n7b6/V6VV3IUVp1dTV0Op10tby6uhrAo1D88MMPodPppDbbuXMnenp6pCvB5ItpZe/O4XCgqqoq5Q4GOeS053fmzJmk8BgdHQXP8zAajVKQiPNCHMehv78/l+VkVF1djfn5edy+fRttbW0p68Ud19/fL/1dYt1quHoFpE4w+/1+XLx4UfY6xLY6c+ZMUshVV1dDr9fjo48+ktqMYRjU1NTA6XRS7/kLxu/348KFC9JrcYqjqqpKutXJZDIlrZNLTsOvqKgoaT6iv78fTqcTRqMRDMPAbrfj4sWLMJvNsNvt+OY3v5nLcjJiGAY2mw27du1atWfa2dmJ1tZW6e9qbGxEV1eXau4JMxqN6OrqkoaQTqcT3/jGNxSpRTyoE78YxKDbtGlT0rRC4sUxNd4QTx6P0WjEu+++K+3T2tpa1NfXo7OzUzrfxGN1//79KC4ulq22TYIgCGttEAqF6OlthJCnRraZRf+2lxCiSRR+hBBNovAjhGgShR8hRJMo/AghmkThRwjRJAo/QogmUfgRQjSJwo8QokkUfoQQTaLwI4Rokqz/SStC1OTdnwPfew+YnduY32coAb77B8A3f3djfh/JLQo/oknv/hz4zo829nfOzj36nRSA6kfDXqJJ33vv6fzdZONQ+BFN2qihrty/m2wcCj9CiCZR+BFCNInCjxCiSTm/2js1NYVbt24BiD/T4/nnn0dpaWnSNjdv3sT09DQAYMeOHXjuuedyXVaKWCyG8fFx3L17F0D8QeY1NTXIz89HMBjEp59+mvIehmGwa9cuFBYWqqZWAFhcXMSNGzekhwE9++yzqKyslLXGRC6XS3ok4b59+/DGG2+kPOnO7/fj/Pnz+N73vqfYU/Dqfgf4m0NA1db46+FPgT86/2j9330LaH0h/v8XY8B/uwL89XX56wTiD/s5duwYrl69CgDo7u6WHlvJcRzsdrv0EKvV2lwuK+txOp1pn3njdrtx8uRJnD59Wpan+OW057e4uIjl5WXs3bsXe/fuxc6dOzExMYHFxUUA8ZP4xo0bACBto0TwAcD9+/dRUVEh1VFQUIDbt28DiD+WUlwu/uzYsQMGg0H24MtUaywWw8TEBAwGA/bu3YvGxkbMzs4iGAzKXicQP6CHh4elZ8vq9XqcOnUqaRuHwwGbzYb5+XlFahT94BvAvQhQcRw4/PfA7+8EvtsaX/dSDbDlt+LrKo4Df/NT4E+/Fl+uhFOnTkGv14NlWYyMjGB4eBhutxtA/CmJXV1dYFkWY2NjAKDIE/yAeEj39PSgtbUVLMticHAQb731Fvx+f8p2g4ODstaW0/ArLCyE2WyWXpeXl6OwsBDhcBhA/CQG4s9sVZper4der5deb9++HdFoVArqROFwGNFoNOXh5XJZq9bl5WUsLy9LD3ApLCwEwzBYWFhQpFaPx4PW1lbpaXjt7e0IBALSoz/FJ7Q5nU5F6hO9VAMYy4B/+nn89f8ZB356G2ja+ej1H/6PR9tfGgXCUaBRgUOX4zgEAgG0t7cDiD8hrbW1FR6PB0D84eBiz2rlc3LlNjExgUgkIj0K1mKxoLa2Vnpkrej69XgXWs4RiqxzfuKJKfaWxB6MOFxTk8XFReTl5SEvLy9l3Z07d7B161ZFen3pJNZaWFiIoqIi3LlzR1oXjUYVeQKfeJI2NDRIy8SHmYtDoL6+PvT19cle20qNO4HFz4H/xz5a9tPb8UBM17szMEDhbwFcSL4aRaOjo9DpdNKD4AGgoaEh6UtFxHEcPB6PFJRy83q9MJlMSY+CtVqt8Pl80rQMx3G4cOECbDabrLXJGn6zs7PIy8uDTqdDLBbD8vIyPv/8c3z00Ud4//338dFHH0m9QiXFYjHMzMygrKwsJZiV7vWtlK5Wcerg/fffxyeffIIvf/nLKfOs5MkcbEgNSzVxOBzS87B/+MMfyjKH9rjOnj0Lq9Wa9BxnOcgWflNTU5idnUV1dbV0ki4vL+PevXuor69POyeoBPFiQkFBQdoueCgUUk2vL12t4jxqeXk59u7dKw15pqamFK72i+PvvhWfDzwxBIz+Rulq0uvr6wPLsnA6nbDb7XC5XEqXlJbb7UYwGMTBgwdl/+ych594MkajUdTX16eERuKwd+WcoNzC4TB8Ph8qKirSXniJxWKYm5tTxUPcV6tVnEctLy8HAOTn56Oqqgpzc3OIxWKK1LpScXGxanrOmYSiwGx8dIa63wG8fwbsKAO+0hufB1QTvV6PkpKSpGVGoxE9PT3weDwpQ2Il6fV6TExM4K233oLdblfkSnROJ9vEnklFRUXSBD0QPykLCgpy+fHrEg6H8dlnn2H37t2r9uoikQgAQKfTyVlaimxqVYOSkhLodDrMzs5KyyYmJhAMBpPmgNSAC8Xn8AwJ5+Dv7wQiS/HenXgbzP+6AXxvWLk6AcBgMCASiWBubk4KDa/XC51Op9jtLKsxmUzS/J5Ym8fjQVVVFbxeL37xi1+kzPVdu3Yt6dadXMlpz29lL2Sl8vJyTE5OSsPc+/fvY3FxUZH5qWwuYoRCIeTl5Sl+gWatWktLS7G4uCi1fSwWw+TkJEpKSmSvm2EY2Gw29Pf3S72OgYGBlAlwNfjr6/EA/NOvxV+/VBMPv+vxO4hw4N+moy6NKlNfIovFApPJhLNnzwKIXzAYHh6G1WoFAJw5c0Zqb57n4XQ6FWvzpqYmAI9utfH7/RgbG0NDQwM6OzvBsqz0MzIygj179mBwcDDnwQfIcJPz3bt3ce3ataRl4o3MYm9wZGQEgHI3DYtu3bol3ZAteuGFF6Q6o9HoqkEut7Vq3bVrF27cuCHdmL1jxw7FbnJuaWlBIBBAY2MjAODQoUOquLqbzp/9z3jvbubfbkP8qw+Te3lVW4Gr/zn5PZ/8Gnj5rHw1io4fP45jx45Jt5Il3jhcVFQktTegbJszDIPe3l7Y7XacPHkSJpNJtpuYM9kkCIKw1gahUEgVc1yEbKSK47n9/TOnMm9DciPbzKJ/20sI0SQKP0KIJlH4EUI0icKPaJKhJPM2avzdZONQ+BFN+u4fPJ2/m2wcCj+iSd/8XeDsf9rYXpqhJP476cltTwe61YUQ8oVCt7oQQsgaKPwIIZpE4UcI0SQKP0KIJlH4EUI0icKPEKJJFH6EEE2i8COEaBKFHyFEkyj8CCGaROFHCNEkCj9CiCZR+BFCNInCjxCiSRR+hBBNovAjhGgShR8hRJMo/AghmkThRwjRJAo/QogmUfgRQjQp5+HHcRwOHDgAs9kMs9kMt9u96jqz2QyXy5XrklbldrulOg4cOACO45LWr/W3yG21WhOXJ/6k+3vk4nK5pDo6OjrA87y0zu/3o7m5WRVtyvM8Ojo6Vj0WE2ttbm6G3+9XqNJHOI5DR0dHyr7NdCwrwe/34+jRo0n7P5HD4ZB3/wsZPHjwINMmqwqHw8Jrr70mOJ1OQRAEwefzCV//+tcFn88nvT506JAwPT392J+xUVbW5nQ6hddee00Ih8PS+hdffFG4cuWKkmVKtaxV60onTpyQ9oHcrly5IrS1tUn7+MSJE8KJEycEQRCE6elpoa2tTWrTlX+X3NZTmxqOXafTKZhMpqT2FWtbz/EhhxMnTggmkyltHeK5ZTKZNuT8yjazctrzm5iYQCQSQVtbGwDAYrGgtrYWXq9X2kav16OkZAOfHP2YvF4vamtrYbFYAABtbW2IRCKYmJgAAAwMDODgwYNoaWlRskwAmWtN5Pf7EQgEpH0gN4/Hg9bWVhiNRgBAe3s7AoEAOI4Dx3FgGAZ1dXUAgOrqamzfvh2zs7Oy18lxHAKBANrb2wEARqMRra2t8Hg8AFLb3GKxwGQyYWhoSPZagXhv2ufz4fz582AYJmndeo4POTgcDgCA0+lMWef3+/H666/j+9//Pvbt2ydrXTkNP6/XC5PJJB34AGC1WuHz+cDzPGZnZzE/P5/LErLC8zx8Ph+sVqu0zGg0wmQywev1guM4BINBxQIkUaZaVxoYGIDVak3aB3IRA6WhoUFaVl1dDZ1Oh9HRUen/iwEiflmKYSin0dFR6HQ6VFdXS8saGhqkoE6nqqoKk5OTcpWYpLOzE+fOnUNxcXHS8vUeH3Lo6+tDX19f2nUWiwVDQ0PYvXu3zFWp4ILH1atXUVtbC7PZLH1DqA3HcSguLsaPfvSjVeeu1EjpXl8mDMPgjTfegM/ng9lsRm9vL374wx8qEtSZNDQ0YGxsTJrn4zgOw8PDCldFnoSi4dfS0gKWZcGyLMbGxhAMBlUbgH6/H0VFRVK9er0ep06dUrqsNXm9XsV6fdngOA5dXV2w2+1gWRZOpxN2u13Rix6rsVgs+Pa3vw2bzQaz2Qy73Y6vfvWrSpdFnoAi4afX61PmKRiGgd1uX3OYoQSTyQQAqKysTOpBJc5dqYVYKxAf/oyPjycNOdWiuLgYBoMBQ0NDMJlM0tyU0WhEV1eXNM+mBolz0olf1pcuXUIkEkFVVZXCFWYv8fggOQ4/k8mEYDCYNDz0eDxrHjBKXABhGAZ6vR6BQEBaJs5XGQwGGI1G6HQ6WWtaTaZaReLkduIcltxKSkqg0+mSLmBMTEwgGAyqrjdqMBgQiUQwNzcnLfN6vdDpdClf1ED6+Uw1yPb4IDkOv6amJgDAxYsXAcSHjmNjY9IBMzg4KPWceJ6H0+lETU1N2oMt19rb2/Hee+9JczpDQ0PSBLjRaIRer8fZs2el7QcGBlIu5qihVtFaJ65cGIaBzWZDf3+/tJ8T2y3dPFp/f3/SZL1cxKu34j4W5/RWq+Xs2bNJvVY1yeb4IMjtfX6C8Oh+KZPJJLz44otJ93CJ9ymJP0rdiya6cuWKVEu6+5HEe5VMJpN0P5hSsqlVDfckCkLyfl7Zbon3eCl9DIj3pYq1JLZf4nGshv0vWu1+w0zHhxKuXLmyai1i28t5n98mQRCEtcIxFAqhrKxMriwmhJAnkm1mKX6rCyGEKIHCjxCiSRR+hBBNovAjhGgShR8hRJMo/AghmkThRwjRJAo/QogmUfgRQjSJwo8QokkUfoQQTaLwI4RoEoUfIUSTKPwIIZpE4UcI0SQKP0KIJlH4EUI0icKPEKJJFH6EEE2i8COEaBKFHyFEkyj8CCGaROFHCNEkCj9CiCZR+BFCNInCjxCiSRR+hBBNovAjhGgShR8hRJNkCz+/34+jR4+C53lpGcdxOHDgAMxmM8xmMxwOh1zlrMnlcsHlcqUsE+s0m81wu90KVZcsXa2JHA4HOjo6ktpdKQ6HI6XdVrbrgQMHwHGcQhXGcRyHjo6OtHX4/X40NzfDbDajubkZfr9fgQofWVkrz/Po6OhIalPxZ63jRA7pMgCIHxdijXIeq7KEn8PhgM1mw/z8fNLyH//4x+jp6QHLshgbG0MwGFR0B4lhfPLkyaTlPM8jGo1ibGwMLMvC6XSiv79f0ZN0tVoT+f1+XLt2TcaqVq+jubkZb7/9dsq6yclJdHd3g2VZsCyLS5cuwWg0KlBlnMvlQmNjI2ZmZlLWud1uHD16FKdPnwbLsvjggw9gsVgUqDIuXa0Mw+DcuXNSe7Isi8HBQezZswdtbW2K1bpaBrhcLgSDQenc0uv1OHXqlCw15Tz8xN6c0+lMWXf48GHp4GEYBjabDT6fT5FeCsdxsNvt6OrqwqFDh5LWMQyDI0eOgGEYAEBdXfalLIsAABZnSURBVB0YhlEs/NaqNdHAwAD27NkjY2Wp/H4/Xn/9dXz/+9/Hvn370m5jMplkrio9l8sFn8+H8+fPS/taxPM8BgcH0d3drWjgidaqdaWBgQFYrVbFvlTWyoDJyUnU19dLf4PVakUwGJQlA3Iefn19fejr68tq20AgAL1en3Fn5oLRaMSlS5fQ0tKScduhoSGYTCbFToJsanW73QgGg6ivr5exslQWiwVDQ0PYvXt3yjqe5xEMBhWoKr3Ozk6cO3cOxcXFKesmJiZQXFyMpqYmBSpLtVatifx+PwKBgKK9vrUywGq1Ynh4WOpIeDyepDDMJdVc8OA4DsPDw7BarUqXklbiXA+ArANdCRzH4cKFC7Db7dDpdEqXk5HdblfNHNpqZmdnodPpcOrUKdXNUa9F6V5fJi0tLejq6kJjYyPMZjOqqqrQ2dkpy2erIvzEYVxra2tWPS8lWCwWfPDBB2BZFgBUMTG/mrNnz8JqtapieLaWlfNT3d3dOHr0qGoD8O2334bValXNHHUmHMchGAwq2uvLxOVywePxSMcAANkueigefm63G6+++ip6enpkS/wn1dnZiV27dmFoaEjpUlKIE8gHDx5UupR1a2lpwZ49e+D1epUuJa19+/ZJw16l56izMTo6Cr1er9peH8dx8Hg8aG9vl5YdPHgQxcXFmJiYyPnn5+f8E9bgdrsxODiIy5cvKzLP90XD8zx8Ph+uXr2K2trapHX79+/H6dOnVd8bBNRzASSRwWDIOL+mNh6PR7XTSGqgWM9PvHpms9lUH3x+vx8XLlyQXrvdbly7dg0NDQ0KVpUq3W0OTqcT+/btw+XLl1UXfBzHYXBwUHrtdrtx48YN1NXVKVhVetXV1Zifn8fFixcBPDp+5ZqcXy+O4xAIBGAwGJQuZVVGoxEmkwkDAwPSsosXL2J+fh7V1dU5/3zFh73iZLf4o8ZJb6PRiHfffVeq8eTJk09NL0rt/uEf/kFq1/7+fjidTlUO0xiGwRtvvAGfzwez2Yza2lrU19erdqqG4zjo9XpZQuRJiBcOxWNgeHgYvb29snyhbBIEQVhrg1AohLKyspwXQgghGyHbzFK850cIIUqg8COEaBKFHyFEkyj8CCGaROFHCNEkCj9CiCZR+BFCNInCjxCiSRR+hBBNovAjhGgShR8hRJMo/AghmkThRwjRJAo/QogmUfgRQjSJwo8QokkUfoQQTaLwI4RoEoUfIUSTKPwIIZpE4UcI0SQKP0KIJlH4EUI0icKPEKJJFH6EEE2i8COEaBKFHyFEkyj8CCGaROFHCNEk2cLP7/fj6NGj4Hk+abnD4YDZbIbZbIbD4ZCrnBQ8z6Ojo0OqpaOjI6nWletdLpdqaxVxHIeOjg5wHKdAlY9qOHDgwKr72OVySeuam5vh9/sVqhRwu91SLWazGW63O2l94rGq9lpFfr8fzc3Nq66Xw1r7eOXxIee5JUv4ORwO2Gw2zM/PpywHAJZlwbIsACgWKtevX4fNZpNq0ev1OHXqlLT+1KlT0Ov1YFkWIyMjGB4eVuyAylQrEG/HxsZGzMzMKFKj6Mc//jF6enrAsizGxsYQDAalfcxxHKLRqPR3dHd3o7e3V5Gw5nke4+PjGBsbA8uyGBwcxFtvvSWdqBzHSfufZVkcPHgQTqcz7ZeO0rUmGhgYQCAQkL1GUaZ9zHEcGIbByMiItE1nZ6csteU8/MSAczqdScs5jkMgEEB7e7u0rL29HR6PR5GDv6WlBS0tLUm1BAIBcByXUqvRaERrays8Ho/sdWaqFYgHn8/nw/nz58EwjCI1ig4fPgyLxQIAYBgGNpsNPp8PPM/DaDTiyJEj0rZNTU2oqKjA6Oio7HUyDIMjR45I7WWxWFBbWwuv1wsAKbU2NDQgEolgbm5OdbWK/H4/gsEg9uzZI3uNomz2sV6vR0lJiey15Tz8+vr60NfXl9W2RqMRABQdpolmZ2eh0+lQUlKC0dFR6HQ6VFdXS+sbGhqSAkdJibUCQGdnJ86dO4fi4mKFK0sVCASg1+vThvLc3BwikQgMBoMClSXjeR7BYBAmkynt+oGBAVitVumYVVK6Wnmeh9PpREtLC3Q6nYLVJVu5j2dnZ1NGhHJR7IKH0WiEyWTCwMCAtGxoaAhTU1NKlSTheR6Dg4Oor69XvOeUydNUK8dxGB4ehtVqTbt+aGgo5UtGKdevX8fMzAzq6uqkZYnzbFarVbbhWSbpar148SL0ej1eeuklBStLlW4fX716FbW1tbLP+yt6tff48eMIBoPSAXX37l1UVlYqWRJ4nsexY8eg1+tVc3Cv5mmqleM42O12tLa2Jg3ZRS6XC8PDw+jt7VU8xN1uN06ePImenp6knl1LS4s0L+XxeFa90CSndLX6/X54PB585zvfUbS2ldLt48Q2FeeE5QpARcOPYRicO3dO+uNfeeUVAFBsKOH3+7F//37YbLashupKzVUA669VSW63G6+++ip6enpSQlq8cj05OYlLly4pPox0OBwYHBzE5cuXpbnKdI4fPw4g3utSSrpaOY5Db28vDh8+rHhbirLdxwzDwG63yzadlJ/zT1gHr9cLk8mkyE7z+/1488038c4776R8vsFgkCa3xW8sr9cLnU6nSC9lrVrVxu12SyfoyrYSe642my1tb1BuDocDVVVVqv8yAVavdXR0FKOjo7Db7UnLr169ikOHDsn+tz3OPparU6Gam5z9fj/ee++9pKu/clprAttiscBkMuHs2bMAMs9d5ZqaJtvXIs5H2my2tF8SYq+pqalJ7tJS+P1+BAIBtLW1pV3vdruTbm26ePFiyjybXNaqNXEYKQ4l9+3bB6fTqUioZ9rHg4ODUi9PvEhTU1MjS6dC0fBLvPnx6NGjeP3119ccauTayZMnk262TLx5NHF+srGxEV1dXYr2VtaqVW3sdntSnYk3uiZOdit9s/vU1BQaGxuTahHn9QwGQ1KbDw8Pw+l0KvYFtFatarPWPg4Gg9LfUVtbi/r6etnmrzcJgiCstUEoFEJZWZksxRBCyJPKNrNUM+wlhBA5UfgRQjSJwo8QokkUfoQQTaLwI4RoEoUfIUSTKPwIIZpE4UcI0SQKP0KIJlH4EUI0icKPEKJJFH6EEE2i8COEaBKFHyFEkyj8CCGaROFHCNEkCj9CiCZR+BFCNInCjxCiSRR+hBBNovAjhGgShR8hRJMo/AghmkThRwjRJAo/QogmUfgRQjSJwo8QokkUfoQQTcp5+LlcLpjNZpjNZjQ3N8Pv96ds43A4pG0cDkeuS0qL53l0dHRIdXR0dIDneQCA2+2Wlif+HDhwABzHqapWAOA4DgcOHJDWu1wu2WtcrZaV+9fv96O5uXnN40Muiceq2WyG2+1OWr/yb1m5Xk6Zak3cTsn9DwCLi4vw+Xx4//338f777yMYDKbd7ubNm6uuywkhgwcPHmTaZFXT09PC6dOnpddXrlwR2trahOnpaUEQBCEcDguvvfaacOLEicf+jI1y5coV4cqVK9LrEydOrFnXiRMnBKfTKUdpKdaqVWxTsbbp6Wmhra0taXs5nT9/XvD5fGlr8/l8wte//nVpvc/nEw4dOiQdH3IKh8PC6dOnhXA4LAjC6sfqarWrqVZBeLTfTSaTYsepIAjC559/LoyNjQmTk5OCIAhCKBQSPv74YyEUCknbhEIh4Wc/+5nwk5/8RJidnX3iz8w2s3La8zMajThy5Ij0uqmpCRUVFRgdHQUAXL9+HQBw/PjxXJaRlZaWFrS0tEiv29vbEQgE0vbs/H4/AoEA2tra5CxRslatc3NziEQiaGhoABDfB7t27UIgEFCk1sOHD8NisQAAGIaBzWaDz+cDz/Pwer2ora2V1lssFphMJgwNDcleJ8MwOHLkCBiGAQDU1dWBYRhp/09MTCASiUj73GKxoLa2Fl6vV3W1chwHu92Orq4uHDp0SPb6EkUiESwvL8NgMAAASktLwTAMQqEQACAcDmNiYgLV1dXYtm2brLXJOucnnphiQ3g8HthsNmknqsns7Cx0Oh1KSkpS1g0MDMBqtcJoNCpQWarEWo1GI0wmEwYGBgDET4RAICCFodICgQD0ev2q+7yqqgqTk5MyV5VqaGgIJpNJCmav1wuTyZS0z61WqxTkSlpZq9FoxKVLl5K+IJUSCoVQVFSEwsJCaVl5eTlCoRBisRhKS0tRX1+P0tJS2WuTNfyGhoag0+lQXV0NnucRiURw9+5d1cz5iHiex+DgIOrr61NOUqV7fSulq7Wvrw8AYDab8eqrr+JP/uRPpBNDSRzHYXh4GFarFQDQ0NCAsbExaZ+L65WSOP8IPGpHNXqaalUr2cLP5XJheHgYvb290kk6Pz+PDz/8EJcvXwbLsuju7kZvb68iFxFEPM/j2LFj0Ov16OzsTFnv9XpV0+tLV6t4McRqtYJlWVy+fBlOp1PxSW9xKNba2ir1SCwWC7797W/DZrPBbDbDbrfjq1/9qmI1WiwWfPDBB2BZFgAUu6CVjaepVrXKefiJJ+Pk5CQuXbqUEhqJw96Vc4Jy8/v92L9/P2w2W9pvUp7nMT4+rooh5Gq1ivOoTU1NAOLzQ3a7HePj44oNz9xuN1599VX09PSkfKG0tLSAZVmwLItLly4hEomgqqpKkToTdXZ2YteuXRnnH9cawssl21rVpKCgAPn5+YrWkNNPF3smNpstZf6BYRjo9fpcfvy6+P1+vPnmm3jnnXdW7dVNTEwAAKqrq+UsLUU2taqF2+3G4OAgLl++nDEkxPnJ9vZ2marLnslkkub3xL/D4/GoIqjVbMuWLdL8nhh29+/fR1FRkcKV5bjnt7IXspLVakV/f7/UXb9+/TpmZmZQV1eXy7LSyuYihtfrhU6nU/ybfq1a6+rqMDMzI7U9z/NwOp2oqamRvW5xPjLbi1pnz55NmriXk9/vx4ULF6TXbrcb165dk3r54jF88eJFafuxsTFFRgGZalWT8vJyAJDO8XA4DJ7nUVZWpmRZcRt1z0w6V65cEUwmU8pP4v1zidusvFdJTidOnEhb68r76ZS6Xy5RploT7/Fa2d5yEu+NW1nniy++KPh8PtXUKQipbSbWuNo26darqVaRkvejihYWFoSPP/5Y+MlPfiL87Gc/S7rHTyTeDyjnfX6bBEEQ1grHUCikjpQmhJAsZJtZ9G97CSGaROFHCNEkCj9CiCZR+BFCNInCjxCiSRR+hBBNovAjhGgShR8hRJMo/AghmkThRwjRJAo/QogmUfgRQjSJwo8QokkUfoQQTaLwI4RoEoUfIUSTKPwIIZpE4UcI0SQKP0KIJlH4EUI0icKPEKJJFH6EEE2i8COEaBKFHyFEkyj8CCGaROFHCNEkCj9CiCZR+BFCNInCjxCiSfm5/oDFxUXcuHEDPM8DAF544QXo9fq063bs2IHnnnsu1yWtKhgM4tNPPwUAMAyDXbt2obCwEAAwNTWFW7duSdsm/h1KWKvWRDdv3sTS0hJqamqQn5/z3Z1WYttt27YtqZaV7brW35JrsVgM4+PjuHv3LgDg2WefRWVlZdI24XAYv/rVrxCNRlFUVITnn38epaWlqql15fJE6f4eOayVAUD8GJ2engaQenzk0iZBEIS1NgiFQigrK3usXy7uiLKyMlRWViIcDmNiYgLV1dUoLS3F9PQ0SkpKUFpamrKt3FbWNjU1hVAohJqaGgDAr3/9a3zpS19Cfn4+gsEgJicnFTtJ16o18aART9Ti4mLFwm9lW928eRMApC+5mzdvoqioSJF9vlJibeIJW1VVJZ2owWAQt2/fVizwEmWqNVE4HMZnn32Gmpoa2Y/XTBmw8thdeXw8jmwzK6fD3kgkguXlZRgMBgBAaWkpGIZBKBQCEO/piQdRfn4+KioqEAqFEIvFcllWWqFQCAzDSPUYDAYsLy8jEokgPz8fZrNZCo/S0lLk5+djcXFR9joz1Zrozp07KC8vV6JEyf3792EwGKSTbvv27YhGo0ltt2XLFqXKkywuLiIajWL79u0AgMLCQhgMBty/fx9A/CSemZnBzp07FQ++TLWudOfOHWzdulWRL+pMGRCNRlFWViadW+Xl5VhaWpIlA3IafqFQCEVFRUmNXl5evmrALSwsoKCgQPYeSiwWQygUSgqKwsJCFBUVSTsp0ezsLIqKihQb7mRTazAYxNLS0mP32jeCeJIm1qDT6ZCXl4dwOIxYLIalpSXF6ksUDoeRl5cHnU4nLSsrK5OCOhKJIC8vT/EvEyBzrSu3jUajUvjILVMGlJeXY3Z2Vqr7/v37SWGYS8pMAqWxuLiI2dlZVFVVKV1KWolzPc8++6yic5OZLC4uYnp6Gl/+8pcV652uhzh3qeQcWiaLi4vIy8vD7du3pfkppeeos6Fkry8b4jB9ZGQEgLzzkqoIP3HOwmAwKHoRYS2lpaX4vd/7PQDxSXqfz6fYnF8mgUAAW7duRWlpKYLBoNLlrCo/Px+7du2SXgeDQfzqV79SbQBOT0/jhRdewHPPPSfNZU1NTalivjKdxcVFLC0twWQyKV3KqqamphCNRrF3717p9Y0bN2SZo1bkVpfEoW0wGMQnn3yC6upqVR5E6eajKisrwTAMZmdnFahodVu2bMHU1BSWlpZgNBqVLmdVeXl5ab809Hq9NCRSi4KCAuTl5QGIX4kUh71Kz1Gnk1grEB+tFBQUqPILuqCgAMvLy7h37540dwkARqMReXl5KfPXuZDTaN2yZYt0cIhhd//+fRQVFQGIB9/MzAzq6+sVuw0DiB/IBQUFWFhYkJatnFRWi7Vq3bZtG0KhEO7evYtr164lvc/n88neo8rLy0NeXl7S0DsSiWBpaWnNE1KJCyCFhYVYXl7G8vKydCyGQiHk5eUhPz8fhYWFScGipEy1iu7fv6/4HGWmDFBSTnt+YsNzHAcg/k3E8zzKysqkq2cVFRWKBp9o+/btmJ2dRTgcBhC/qCFOKofDYWmeB4iHtjgxq6ZaS0tLsWvXLuzdu1f6eeGFF7Bt2zbU19fLPpQUe0eTk5NSAN65c0eaAF9cXMTMzIy0fTAYBM/zigx5S0tLUVRUhEAgAODRHLR4DOt0OiwvL0vHsnj8yjU5v55axWXRaFTxXt9aGSBeqLtz5460PcdxWF5eTrqYkys5vc8PSL7BMXFCe7WbMZWc9E68cTjxZsuVN2mqYWJ+tVrTbTczM6Oam5wTLxKsbFclb3AGUm8cXnkzbjY3Qaul1nA4jN/85jeorq5WvHOxWgaIEm9y3ohjINvMynn4EUKInFRxkzMhhKgVhR8hRJMo/AghmkThRwjRJAo/QogmUfgRQjSJwo8QokkUfoQQTaLwI4RoEoUfIUSTKPwIIZpE4UcI0SQKP0KIJlH4EUI0icKPEKJJFH6EEE3KGH6bN1M+EkKeHtlmVsat8vPzVfN0KkIIWUvig5IyyRh+BQUFiEajT1wUIYTkWjQaRUFBQVbbZgw/8XF4cjxHkxBCHlckEkF+fn7WjxjNanBcVFQEQRAoAAkhqhSJRCAIwrqeB5zx6W2JotEoYrEYioqKFH8cHiGExGIxRKNR5Ofnr/tB6OsKPwBYXl7G0tISYrEYHj58uK4PI4SQjbJ582bk5+ejoKAg66FuonWHHyGEfBHQTXyEEE2i8COEaBKFHyFEkyj8CCGaROFHCNGk/w+arSetvICplgAAAABJRU5ErkJggg==;" vertex="1" parent="1">
                    <mxGeometry x="493.99999999999994" y="511.00000000000006" width="496.62" height="532.43" as="geometry"/>
                </mxCell>
            </root>
        </mxGraphModel>
    </diagram>
    <diagram name="My Itinaries" id="jvTvyWEtzE_TBNnnFWBN">
        <mxGraphModel dx="2963" dy="1666" grid="0" gridSize="10" guides="1" tooltips="1" connect="1" arrows="1" fold="1" page="1" pageScale="1" pageWidth="1920" pageHeight="1200" math="0" shadow="0">
            <root>
                <mxCell id="0"/>
                <mxCell id="1" parent="0"/>
                <mxCell id="5peQjcBfaKZ_pok7FRJy-1" value="" style="html=1;shadow=0;dashed=0;shape=mxgraph.bootstrap.rect;fillColor=#222222;strokeColor=none;whiteSpace=wrap;rounded=0;fontSize=12;fontColor=#000000;align=center;" vertex="1" parent="1">
                    <mxGeometry width="1920" height="60" as="geometry"/>
                </mxCell>
                <mxCell id="5peQjcBfaKZ_pok7FRJy-2" value="Joseph" style="html=1;shadow=0;dashed=0;fillColor=none;strokeColor=none;shape=mxgraph.bootstrap.rect;fontColor=#999999;fontSize=14;whiteSpace=wrap;" vertex="1" parent="5peQjcBfaKZ_pok7FRJy-1">
                    <mxGeometry width="192" height="59.99999999999999" as="geometry"/>
                </mxCell>
                <mxCell id="5peQjcBfaKZ_pok7FRJy-3" value="&lt;font style=&quot;font-size: 20px;&quot;&gt;Log &lt;/font&gt;&lt;font style=&quot;font-size: 20px;&quot;&gt;Out&lt;/font&gt;" style="html=1;shadow=0;dashed=0;fillColor=none;strokeColor=none;shape=mxgraph.bootstrap.rect;fontColor=#999999;whiteSpace=wrap;" vertex="1" parent="5peQjcBfaKZ_pok7FRJy-1">
                    <mxGeometry x="1752" width="168" height="59.99999999999999" as="geometry"/>
                </mxCell>
                <mxCell id="5peQjcBfaKZ_pok7FRJy-4" value="&lt;font style=&quot;font-size: 20px;&quot;&gt;My Itinaries&lt;/font&gt;" style="html=1;shadow=0;dashed=0;fillColor=none;strokeColor=none;shape=mxgraph.bootstrap.rect;fontColor=#999999;whiteSpace=wrap;" vertex="1" parent="5peQjcBfaKZ_pok7FRJy-1">
                    <mxGeometry x="1605" width="168" height="59.99999999999999" as="geometry"/>
                </mxCell>
                <mxCell id="5peQjcBfaKZ_pok7FRJy-5" value="&lt;font style=&quot;font-size: 20px;&quot;&gt;Itinaries&lt;/font&gt;" style="html=1;shadow=0;dashed=0;fillColor=none;strokeColor=none;shape=mxgraph.bootstrap.rect;fontColor=#999999;whiteSpace=wrap;flipV=1;flipH=1;" vertex="1" parent="5peQjcBfaKZ_pok7FRJy-1">
                    <mxGeometry x="1460" width="168" height="59.99999999999999" as="geometry"/>
                </mxCell>
                <mxCell id="5peQjcBfaKZ_pok7FRJy-6" value="&lt;font style=&quot;font-size: 20px;&quot;&gt;Publish initary&lt;/font&gt;" style="html=1;shadow=0;dashed=0;fillColor=none;strokeColor=none;shape=mxgraph.bootstrap.rect;fontColor=#999999;whiteSpace=wrap;flipV=1;flipH=1;" vertex="1" parent="5peQjcBfaKZ_pok7FRJy-1">
                    <mxGeometry x="1313" width="168" height="59.99999999999999" as="geometry"/>
                </mxCell>
                <mxCell id="5peQjcBfaKZ_pok7FRJy-7" value="" style="html=1;shadow=0;dashed=0;shape=mxgraph.bootstrap.rrect;rSize=5;strokeColor=#dddddd;rounded=0;fontSize=12;align=center;" vertex="1" parent="1">
                    <mxGeometry x="22" y="80" width="330" height="409" as="geometry"/>
                </mxCell>
                <mxCell id="5peQjcBfaKZ_pok7FRJy-8" value="320x200" style="shape=rect;fontSize=24;fillColor=#f0f0f0;strokeColor=none;fontColor=#999999;whiteSpace=wrap;" vertex="1" parent="5peQjcBfaKZ_pok7FRJy-7">
                    <mxGeometry x="5" y="5.1125" width="320" height="129.8575" as="geometry"/>
                </mxCell>
                <mxCell id="5peQjcBfaKZ_pok7FRJy-9" value="Alma" style="html=1;shadow=0;dashed=0;shape=mxgraph.bootstrap.anchor;fontSize=26;align=left;whiteSpace=wrap;" vertex="1" parent="5peQjcBfaKZ_pok7FRJy-7">
                    <mxGeometry x="13" y="155.42" width="300" height="40.9" as="geometry"/>
                </mxCell>
                <mxCell id="5peQjcBfaKZ_pok7FRJy-10" value="Delete" style="html=1;shadow=0;dashed=0;shape=mxgraph.bootstrap.rrect;rSize=5;fontSize=16;fillColor=#FF0000;strokeColor=none;fontColor=#ffffff;whiteSpace=wrap;" vertex="1" parent="5peQjcBfaKZ_pok7FRJy-7">
                    <mxGeometry y="1" width="80" height="40" relative="1" as="geometry">
                        <mxPoint x="226" y="-59" as="offset"/>
                    </mxGeometry>
                </mxCell>
                <mxCell id="5peQjcBfaKZ_pok7FRJy-11" value="&lt;font style=&quot;font-size: 17px;&quot;&gt;Joseph (Me)&lt;/font&gt;" style="html=1;shadow=0;dashed=0;shape=mxgraph.bootstrap.anchor;fontSize=26;align=left;whiteSpace=wrap;" vertex="1" parent="5peQjcBfaKZ_pok7FRJy-7">
                    <mxGeometry x="13" y="192.23" width="300" height="40.9" as="geometry"/>
                </mxCell>
                <mxCell id="5peQjcBfaKZ_pok7FRJy-12" value="&lt;font style=&quot;font-size: 17px;&quot;&gt;0 places disponibles&lt;/font&gt;" style="html=1;shadow=0;dashed=0;shape=mxgraph.bootstrap.anchor;fontSize=26;align=left;whiteSpace=wrap;" vertex="1" parent="5peQjcBfaKZ_pok7FRJy-7">
                    <mxGeometry x="13" y="228.01749999999998" width="300" height="40.9" as="geometry"/>
                </mxCell>
                <mxCell id="5peQjcBfaKZ_pok7FRJy-13" value="&lt;font style=&quot;font-size: 17px;&quot;&gt;10 février 2023&lt;/font&gt;" style="html=1;shadow=0;dashed=0;shape=mxgraph.bootstrap.anchor;fontSize=26;align=left;whiteSpace=wrap;" vertex="1" parent="5peQjcBfaKZ_pok7FRJy-7">
                    <mxGeometry x="13" y="259.71750000000003" width="300" height="40.9" as="geometry"/>
                </mxCell>
                <mxCell id="5peQjcBfaKZ_pok7FRJy-14" value="&lt;font style=&quot;font-size: 17px;&quot;&gt;8:30&lt;/font&gt;" style="html=1;shadow=0;dashed=0;shape=mxgraph.bootstrap.anchor;fontSize=26;align=left;whiteSpace=wrap;" vertex="1" parent="5peQjcBfaKZ_pok7FRJy-7">
                    <mxGeometry x="13" y="294.995" width="300" height="40.9" as="geometry"/>
                </mxCell>
                <mxCell id="FyqgMNba5iqSoYgh4ncW-4" value="Edit" style="html=1;shadow=0;dashed=0;shape=mxgraph.bootstrap.rrect;rSize=5;fontSize=16;fillColor=#007FFF;strokeColor=none;fontColor=#ffffff;whiteSpace=wrap;gradientColor=none;" vertex="1" parent="5peQjcBfaKZ_pok7FRJy-7">
                    <mxGeometry x="131" y="350" width="80" height="40" as="geometry"/>
                </mxCell>
                <mxCell id="5peQjcBfaKZ_pok7FRJy-15" value="" style="verticalLabelPosition=bottom;shadow=0;dashed=0;align=center;html=1;verticalAlign=top;strokeWidth=1;shape=mxgraph.mockup.navigation.scrollBar;strokeColor=#999999;barPos=100;fillColor2=#99ddff;strokeColor2=none;direction=north;fontSize=41;fontColor=#000000;fillColor=#000000;" vertex="1" parent="1">
                    <mxGeometry x="387" y="58" width="20" height="1140" as="geometry"/>
                </mxCell>
                <mxCell id="5peQjcBfaKZ_pok7FRJy-16" value="" style="verticalLabelPosition=bottom;shadow=0;dashed=0;align=center;html=1;verticalAlign=top;strokeWidth=1;shape=mxgraph.mockup.misc.map;strokeColor=#000000;fontSize=20;fontColor=#000000;fillColor=#000000;" vertex="1" parent="1">
                    <mxGeometry x="533" y="126" width="1282" height="709" as="geometry"/>
                </mxCell>
                <mxCell id="5peQjcBfaKZ_pok7FRJy-17" value="Climb on board" style="strokeWidth=1;shadow=0;dashed=0;align=center;html=1;shape=mxgraph.mockup.buttons.button;strokeColor=#666666;fontColor=#ffffff;mainText=;buttonStyle=round;fontSize=17;fontStyle=1;fillColor=#008cff;whiteSpace=wrap;" vertex="1" parent="1">
                    <mxGeometry x="1686" y="1061" width="150" height="50" as="geometry"/>
                </mxCell>
                <mxCell id="5peQjcBfaKZ_pok7FRJy-18" value="" style="html=1;shadow=0;dashed=0;shape=mxgraph.bootstrap.rrect;rSize=5;strokeColor=#dddddd;rounded=0;fontSize=12;align=center;" vertex="1" parent="1">
                    <mxGeometry x="22" y="514" width="330" height="409" as="geometry"/>
                </mxCell>
                <mxCell id="5peQjcBfaKZ_pok7FRJy-19" value="320x200" style="shape=rect;fontSize=24;fillColor=#f0f0f0;strokeColor=none;fontColor=#999999;whiteSpace=wrap;" vertex="1" parent="5peQjcBfaKZ_pok7FRJy-18">
                    <mxGeometry x="5" y="5.1125" width="320" height="129.8575" as="geometry"/>
                </mxCell>
                <mxCell id="5peQjcBfaKZ_pok7FRJy-20" value="Alma" style="html=1;shadow=0;dashed=0;shape=mxgraph.bootstrap.anchor;fontSize=26;align=left;whiteSpace=wrap;" vertex="1" parent="5peQjcBfaKZ_pok7FRJy-18">
                    <mxGeometry x="13" y="155.42" width="300" height="40.9" as="geometry"/>
                </mxCell>
                <mxCell id="5peQjcBfaKZ_pok7FRJy-22" value="&lt;font style=&quot;font-size: 17px;&quot;&gt;Xin Zhao&lt;/font&gt;" style="html=1;shadow=0;dashed=0;shape=mxgraph.bootstrap.anchor;fontSize=26;align=left;whiteSpace=wrap;" vertex="1" parent="5peQjcBfaKZ_pok7FRJy-18">
                    <mxGeometry x="13" y="192.23" width="300" height="40.9" as="geometry"/>
                </mxCell>
                <mxCell id="5peQjcBfaKZ_pok7FRJy-23" value="&lt;font style=&quot;font-size: 17px;&quot;&gt;2 places disponibles&lt;/font&gt;" style="html=1;shadow=0;dashed=0;shape=mxgraph.bootstrap.anchor;fontSize=26;align=left;whiteSpace=wrap;" vertex="1" parent="5peQjcBfaKZ_pok7FRJy-18">
                    <mxGeometry x="13" y="228.01749999999998" width="300" height="40.9" as="geometry"/>
                </mxCell>
                <mxCell id="5peQjcBfaKZ_pok7FRJy-24" value="&lt;font style=&quot;font-size: 17px;&quot;&gt;5 février 2023&lt;/font&gt;" style="html=1;shadow=0;dashed=0;shape=mxgraph.bootstrap.anchor;fontSize=26;align=left;whiteSpace=wrap;" vertex="1" parent="5peQjcBfaKZ_pok7FRJy-18">
                    <mxGeometry x="13" y="259.71750000000003" width="300" height="40.9" as="geometry"/>
                </mxCell>
                <mxCell id="5peQjcBfaKZ_pok7FRJy-25" value="&lt;font style=&quot;font-size: 17px;&quot;&gt;8:30&lt;/font&gt;" style="html=1;shadow=0;dashed=0;shape=mxgraph.bootstrap.anchor;fontSize=26;align=left;whiteSpace=wrap;" vertex="1" parent="5peQjcBfaKZ_pok7FRJy-18">
                    <mxGeometry x="13" y="294.995" width="300" height="40.9" as="geometry"/>
                </mxCell>
                <mxCell id="QVQnW98OJHoZY7CRbgnm-33" value="Delete" style="html=1;shadow=0;dashed=0;shape=mxgraph.bootstrap.rrect;rSize=5;fontSize=16;fillColor=#FF0000;strokeColor=none;fontColor=#ffffff;whiteSpace=wrap;" vertex="1" parent="5peQjcBfaKZ_pok7FRJy-18">
                    <mxGeometry x="225" y="351" width="80" height="40" as="geometry"/>
                </mxCell>
                <mxCell id="QVQnW98OJHoZY7CRbgnm-5" value="" style="html=1;shadow=0;dashed=0;shape=mxgraph.bootstrap.rrect;rSize=5;strokeColor=#dddddd;rounded=0;fontSize=12;align=center;" vertex="1" parent="1">
                    <mxGeometry x="533" y="886" width="330" height="272" as="geometry"/>
                </mxCell>
                <mxCell id="QVQnW98OJHoZY7CRbgnm-6" value="320x200" style="shape=rect;fontSize=24;fillColor=#f0f0f0;strokeColor=none;fontColor=#999999;whiteSpace=wrap;" vertex="1" parent="QVQnW98OJHoZY7CRbgnm-5">
                    <mxGeometry x="5" y="3.4" width="320" height="143.6" as="geometry"/>
                </mxCell>
                <mxCell id="QVQnW98OJHoZY7CRbgnm-7" value="Karim Malaoui" style="html=1;shadow=0;dashed=0;shape=mxgraph.bootstrap.anchor;fontSize=26;align=left;whiteSpace=wrap;" vertex="1" parent="QVQnW98OJHoZY7CRbgnm-5">
                    <mxGeometry x="10" y="162" width="300" height="27.199999999999996" as="geometry"/>
                </mxCell>
                <mxCell id="QVQnW98OJHoZY7CRbgnm-9" value="" style="html=1;shadow=0;dashed=0;shape=mxgraph.bootstrap.anchor;fontSize=26;align=left;whiteSpace=wrap;" vertex="1" parent="QVQnW98OJHoZY7CRbgnm-5">
                    <mxGeometry x="13" y="127.83999999999999" width="300" height="27.199999999999996" as="geometry"/>
                </mxCell>
                <mxCell id="QVQnW98OJHoZY7CRbgnm-10" value="" style="html=1;shadow=0;dashed=0;shape=mxgraph.bootstrap.anchor;fontSize=26;align=left;whiteSpace=wrap;" vertex="1" parent="QVQnW98OJHoZY7CRbgnm-5">
                    <mxGeometry x="13" y="151.64" width="300" height="27.199999999999996" as="geometry"/>
                </mxCell>
                <mxCell id="QVQnW98OJHoZY7CRbgnm-11" value="" style="html=1;shadow=0;dashed=0;shape=mxgraph.bootstrap.anchor;fontSize=26;align=left;whiteSpace=wrap;" vertex="1" parent="QVQnW98OJHoZY7CRbgnm-5">
                    <mxGeometry x="13" y="172.72166259168705" width="300" height="27.199999999999996" as="geometry"/>
                </mxCell>
                <mxCell id="QVQnW98OJHoZY7CRbgnm-12" value="" style="html=1;shadow=0;dashed=0;shape=mxgraph.bootstrap.anchor;fontSize=26;align=left;whiteSpace=wrap;" vertex="1" parent="QVQnW98OJHoZY7CRbgnm-5">
                    <mxGeometry x="13" y="196.18249388753054" width="300" height="27.199999999999996" as="geometry"/>
                </mxCell>
                <mxCell id="QVQnW98OJHoZY7CRbgnm-34" value="Delete" style="html=1;shadow=0;dashed=0;shape=mxgraph.bootstrap.rrect;rSize=5;fontSize=16;fillColor=#FF0000;strokeColor=none;fontColor=#ffffff;whiteSpace=wrap;" vertex="1" parent="QVQnW98OJHoZY7CRbgnm-5">
                    <mxGeometry x="230" y="217" width="80" height="40" as="geometry"/>
                </mxCell>
                <mxCell id="QVQnW98OJHoZY7CRbgnm-23" value="" style="html=1;shadow=0;dashed=0;shape=mxgraph.bootstrap.rrect;rSize=5;strokeColor=#dddddd;rounded=0;fontSize=12;align=center;" vertex="1" parent="1">
                    <mxGeometry x="907" y="886" width="330" height="272" as="geometry"/>
                </mxCell>
                <mxCell id="QVQnW98OJHoZY7CRbgnm-24" value="320x200" style="shape=rect;fontSize=24;fillColor=#f0f0f0;strokeColor=none;fontColor=#999999;whiteSpace=wrap;" vertex="1" parent="QVQnW98OJHoZY7CRbgnm-23">
                    <mxGeometry x="5" y="3.4" width="320" height="143.6" as="geometry"/>
                </mxCell>
                <mxCell id="QVQnW98OJHoZY7CRbgnm-25" value="Carolina Pizo" style="html=1;shadow=0;dashed=0;shape=mxgraph.bootstrap.anchor;fontSize=26;align=left;whiteSpace=wrap;" vertex="1" parent="QVQnW98OJHoZY7CRbgnm-23">
                    <mxGeometry x="10" y="162" width="300" height="27.199999999999996" as="geometry"/>
                </mxCell>
                <mxCell id="QVQnW98OJHoZY7CRbgnm-26" value="" style="html=1;shadow=0;dashed=0;shape=mxgraph.bootstrap.anchor;fontSize=26;align=left;whiteSpace=wrap;" vertex="1" parent="QVQnW98OJHoZY7CRbgnm-23">
                    <mxGeometry x="13" y="127.83999999999999" width="300" height="27.199999999999996" as="geometry"/>
                </mxCell>
                <mxCell id="QVQnW98OJHoZY7CRbgnm-27" value="" style="html=1;shadow=0;dashed=0;shape=mxgraph.bootstrap.anchor;fontSize=26;align=left;whiteSpace=wrap;" vertex="1" parent="QVQnW98OJHoZY7CRbgnm-23">
                    <mxGeometry x="13" y="151.64" width="300" height="27.199999999999996" as="geometry"/>
                </mxCell>
                <mxCell id="QVQnW98OJHoZY7CRbgnm-28" value="" style="html=1;shadow=0;dashed=0;shape=mxgraph.bootstrap.anchor;fontSize=26;align=left;whiteSpace=wrap;" vertex="1" parent="QVQnW98OJHoZY7CRbgnm-23">
                    <mxGeometry x="13" y="172.72166259168705" width="300" height="27.199999999999996" as="geometry"/>
                </mxCell>
                <mxCell id="QVQnW98OJHoZY7CRbgnm-29" value="" style="html=1;shadow=0;dashed=0;shape=mxgraph.bootstrap.anchor;fontSize=26;align=left;whiteSpace=wrap;" vertex="1" parent="QVQnW98OJHoZY7CRbgnm-23">
                    <mxGeometry x="13" y="196.18249388753054" width="300" height="27.199999999999996" as="geometry"/>
                </mxCell>
                <mxCell id="QVQnW98OJHoZY7CRbgnm-35" value="Delete" style="html=1;shadow=0;dashed=0;shape=mxgraph.bootstrap.rrect;rSize=5;fontSize=16;fillColor=#FF0000;strokeColor=none;fontColor=#ffffff;whiteSpace=wrap;" vertex="1" parent="QVQnW98OJHoZY7CRbgnm-23">
                    <mxGeometry x="233" y="214.0000000000001" width="80" height="40" as="geometry"/>
                </mxCell>
                <mxCell id="QVQnW98OJHoZY7CRbgnm-31" value="Request" style="html=1;shadow=0;dashed=0;shape=mxgraph.bootstrap.rrect;rSize=5;fontSize=16;fillColor=#3D8BCD;strokeColor=none;fontColor=#ffffff;whiteSpace=wrap;" vertex="1" parent="1">
                    <mxGeometry x="1685" y="959" width="151" height="40" as="geometry"/>
                </mxCell>
            </root>
        </mxGraphModel>
    </diagram>
    <diagram name=" My Itinaries/Request" id="PGZ1GKGUm4YIX6OTClbs">
        <mxGraphModel dx="2074" dy="1166" grid="0" gridSize="10" guides="1" tooltips="1" connect="1" arrows="1" fold="1" page="1" pageScale="1" pageWidth="1920" pageHeight="1200" math="0" shadow="0">
            <root>
                <mxCell id="IsXeN4zFqowB7tDELrzI-0"/>
                <mxCell id="IsXeN4zFqowB7tDELrzI-1" parent="IsXeN4zFqowB7tDELrzI-0"/>
                <mxCell id="IsXeN4zFqowB7tDELrzI-2" value="" style="html=1;shadow=0;dashed=0;shape=mxgraph.bootstrap.rect;fillColor=#222222;strokeColor=none;whiteSpace=wrap;rounded=0;fontSize=12;fontColor=#000000;align=center;" parent="IsXeN4zFqowB7tDELrzI-1" vertex="1">
                    <mxGeometry width="1920" height="60" as="geometry"/>
                </mxCell>
                <mxCell id="IsXeN4zFqowB7tDELrzI-3" value="Joseph" style="html=1;shadow=0;dashed=0;fillColor=none;strokeColor=none;shape=mxgraph.bootstrap.rect;fontColor=#999999;fontSize=14;whiteSpace=wrap;" parent="IsXeN4zFqowB7tDELrzI-2" vertex="1">
                    <mxGeometry width="192" height="59.99999999999999" as="geometry"/>
                </mxCell>
                <mxCell id="IsXeN4zFqowB7tDELrzI-4" value="&lt;font style=&quot;font-size: 20px;&quot;&gt;Log &lt;/font&gt;&lt;font style=&quot;font-size: 20px;&quot;&gt;Out&lt;/font&gt;" style="html=1;shadow=0;dashed=0;fillColor=none;strokeColor=none;shape=mxgraph.bootstrap.rect;fontColor=#999999;whiteSpace=wrap;" parent="IsXeN4zFqowB7tDELrzI-2" vertex="1">
                    <mxGeometry x="1752" width="168" height="59.99999999999999" as="geometry"/>
                </mxCell>
                <mxCell id="IsXeN4zFqowB7tDELrzI-5" value="&lt;font style=&quot;font-size: 20px;&quot;&gt;My Itinaries&lt;/font&gt;" style="html=1;shadow=0;dashed=0;fillColor=none;strokeColor=none;shape=mxgraph.bootstrap.rect;fontColor=#999999;whiteSpace=wrap;" parent="IsXeN4zFqowB7tDELrzI-2" vertex="1">
                    <mxGeometry x="1605" width="168" height="59.99999999999999" as="geometry"/>
                </mxCell>
                <mxCell id="IsXeN4zFqowB7tDELrzI-6" value="&lt;font style=&quot;font-size: 20px;&quot;&gt;Itinaries&lt;/font&gt;" style="html=1;shadow=0;dashed=0;fillColor=none;strokeColor=none;shape=mxgraph.bootstrap.rect;fontColor=#999999;whiteSpace=wrap;flipV=1;flipH=1;" parent="IsXeN4zFqowB7tDELrzI-2" vertex="1">
                    <mxGeometry x="1460" width="168" height="59.99999999999999" as="geometry"/>
                </mxCell>
                <mxCell id="IsXeN4zFqowB7tDELrzI-7" value="&lt;font style=&quot;font-size: 20px;&quot;&gt;Publish initary&lt;/font&gt;" style="html=1;shadow=0;dashed=0;fillColor=none;strokeColor=none;shape=mxgraph.bootstrap.rect;fontColor=#999999;whiteSpace=wrap;flipV=1;flipH=1;" parent="IsXeN4zFqowB7tDELrzI-2" vertex="1">
                    <mxGeometry x="1313" width="168" height="59.99999999999999" as="geometry"/>
                </mxCell>
                <mxCell id="IsXeN4zFqowB7tDELrzI-8" value="" style="html=1;shadow=0;dashed=0;shape=mxgraph.bootstrap.rrect;rSize=5;strokeColor=#dddddd;rounded=0;fontSize=12;align=center;" parent="IsXeN4zFqowB7tDELrzI-1" vertex="1">
                    <mxGeometry x="22" y="80" width="330" height="409" as="geometry"/>
                </mxCell>
                <mxCell id="IsXeN4zFqowB7tDELrzI-9" value="320x200" style="shape=rect;fontSize=24;fillColor=#f0f0f0;strokeColor=none;fontColor=#999999;whiteSpace=wrap;" parent="IsXeN4zFqowB7tDELrzI-8" vertex="1">
                    <mxGeometry x="5" y="5.1125" width="320" height="129.8575" as="geometry"/>
                </mxCell>
                <mxCell id="IsXeN4zFqowB7tDELrzI-10" value="Alma" style="html=1;shadow=0;dashed=0;shape=mxgraph.bootstrap.anchor;fontSize=26;align=left;whiteSpace=wrap;" parent="IsXeN4zFqowB7tDELrzI-8" vertex="1">
                    <mxGeometry x="13" y="155.42" width="300" height="40.9" as="geometry"/>
                </mxCell>
                <mxCell id="IsXeN4zFqowB7tDELrzI-11" value="Delete" style="html=1;shadow=0;dashed=0;shape=mxgraph.bootstrap.rrect;rSize=5;fontSize=16;fillColor=#FF0000;strokeColor=none;fontColor=#ffffff;whiteSpace=wrap;" parent="IsXeN4zFqowB7tDELrzI-8" vertex="1">
                    <mxGeometry y="1" width="80" height="40" relative="1" as="geometry">
                        <mxPoint x="226" y="-59" as="offset"/>
                    </mxGeometry>
                </mxCell>
                <mxCell id="IsXeN4zFqowB7tDELrzI-12" value="&lt;font style=&quot;font-size: 17px;&quot;&gt;Joseph (Me)&lt;/font&gt;" style="html=1;shadow=0;dashed=0;shape=mxgraph.bootstrap.anchor;fontSize=26;align=left;whiteSpace=wrap;" parent="IsXeN4zFqowB7tDELrzI-8" vertex="1">
                    <mxGeometry x="13" y="192.23" width="300" height="40.9" as="geometry"/>
                </mxCell>
                <mxCell id="IsXeN4zFqowB7tDELrzI-13" value="&lt;font style=&quot;font-size: 17px;&quot;&gt;0 places disponibles&lt;/font&gt;" style="html=1;shadow=0;dashed=0;shape=mxgraph.bootstrap.anchor;fontSize=26;align=left;whiteSpace=wrap;" parent="IsXeN4zFqowB7tDELrzI-8" vertex="1">
                    <mxGeometry x="13" y="228.01749999999998" width="300" height="40.9" as="geometry"/>
                </mxCell>
                <mxCell id="IsXeN4zFqowB7tDELrzI-14" value="&lt;font style=&quot;font-size: 17px;&quot;&gt;10 février 2023&lt;/font&gt;" style="html=1;shadow=0;dashed=0;shape=mxgraph.bootstrap.anchor;fontSize=26;align=left;whiteSpace=wrap;" parent="IsXeN4zFqowB7tDELrzI-8" vertex="1">
                    <mxGeometry x="13" y="259.71750000000003" width="300" height="40.9" as="geometry"/>
                </mxCell>
                <mxCell id="IsXeN4zFqowB7tDELrzI-15" value="&lt;font style=&quot;font-size: 17px;&quot;&gt;8:30&lt;/font&gt;" style="html=1;shadow=0;dashed=0;shape=mxgraph.bootstrap.anchor;fontSize=26;align=left;whiteSpace=wrap;" parent="IsXeN4zFqowB7tDELrzI-8" vertex="1">
                    <mxGeometry x="13" y="294.995" width="300" height="40.9" as="geometry"/>
                </mxCell>
                <mxCell id="IsXeN4zFqowB7tDELrzI-16" value="Edit" style="html=1;shadow=0;dashed=0;shape=mxgraph.bootstrap.rrect;rSize=5;fontSize=16;fillColor=#007FFF;strokeColor=none;fontColor=#ffffff;whiteSpace=wrap;gradientColor=none;" parent="IsXeN4zFqowB7tDELrzI-8" vertex="1">
                    <mxGeometry x="131" y="350" width="80" height="40" as="geometry"/>
                </mxCell>
                <mxCell id="IsXeN4zFqowB7tDELrzI-17" value="" style="verticalLabelPosition=bottom;shadow=0;dashed=0;align=center;html=1;verticalAlign=top;strokeWidth=1;shape=mxgraph.mockup.navigation.scrollBar;strokeColor=#999999;barPos=100;fillColor2=#99ddff;strokeColor2=none;direction=north;fontSize=41;fontColor=#000000;fillColor=#000000;" parent="IsXeN4zFqowB7tDELrzI-1" vertex="1">
                    <mxGeometry x="387" y="58" width="20" height="1140" as="geometry"/>
                </mxCell>
                <mxCell id="IsXeN4zFqowB7tDELrzI-18" value="" style="verticalLabelPosition=bottom;shadow=0;dashed=0;align=center;html=1;verticalAlign=top;strokeWidth=1;shape=mxgraph.mockup.misc.map;strokeColor=#000000;fontSize=20;fontColor=#000000;fillColor=#000000;" parent="IsXeN4zFqowB7tDELrzI-1" vertex="1">
                    <mxGeometry x="533" y="126" width="1282" height="709" as="geometry"/>
                </mxCell>
                <mxCell id="IsXeN4zFqowB7tDELrzI-19" value="Climb on board" style="strokeWidth=1;shadow=0;dashed=0;align=center;html=1;shape=mxgraph.mockup.buttons.button;strokeColor=#666666;fontColor=#ffffff;mainText=;buttonStyle=round;fontSize=17;fontStyle=1;fillColor=#008cff;whiteSpace=wrap;" parent="IsXeN4zFqowB7tDELrzI-1" vertex="1">
                    <mxGeometry x="1686" y="1061" width="150" height="50" as="geometry"/>
                </mxCell>
                <mxCell id="IsXeN4zFqowB7tDELrzI-20" value="" style="html=1;shadow=0;dashed=0;shape=mxgraph.bootstrap.rrect;rSize=5;strokeColor=#dddddd;rounded=0;fontSize=12;align=center;" parent="IsXeN4zFqowB7tDELrzI-1" vertex="1">
                    <mxGeometry x="22" y="514" width="330" height="409" as="geometry"/>
                </mxCell>
                <mxCell id="IsXeN4zFqowB7tDELrzI-21" value="320x200" style="shape=rect;fontSize=24;fillColor=#f0f0f0;strokeColor=none;fontColor=#999999;whiteSpace=wrap;" parent="IsXeN4zFqowB7tDELrzI-20" vertex="1">
                    <mxGeometry x="5" y="5.1125" width="320" height="129.8575" as="geometry"/>
                </mxCell>
                <mxCell id="IsXeN4zFqowB7tDELrzI-22" value="Alma" style="html=1;shadow=0;dashed=0;shape=mxgraph.bootstrap.anchor;fontSize=26;align=left;whiteSpace=wrap;" parent="IsXeN4zFqowB7tDELrzI-20" vertex="1">
                    <mxGeometry x="13" y="155.42" width="300" height="40.9" as="geometry"/>
                </mxCell>
                <mxCell id="IsXeN4zFqowB7tDELrzI-23" value="&lt;font style=&quot;font-size: 17px;&quot;&gt;Xin Zhao&lt;/font&gt;" style="html=1;shadow=0;dashed=0;shape=mxgraph.bootstrap.anchor;fontSize=26;align=left;whiteSpace=wrap;" parent="IsXeN4zFqowB7tDELrzI-20" vertex="1">
                    <mxGeometry x="13" y="192.23" width="300" height="40.9" as="geometry"/>
                </mxCell>
                <mxCell id="IsXeN4zFqowB7tDELrzI-24" value="&lt;font style=&quot;font-size: 17px;&quot;&gt;2 places disponibles&lt;/font&gt;" style="html=1;shadow=0;dashed=0;shape=mxgraph.bootstrap.anchor;fontSize=26;align=left;whiteSpace=wrap;" parent="IsXeN4zFqowB7tDELrzI-20" vertex="1">
                    <mxGeometry x="13" y="228.01749999999998" width="300" height="40.9" as="geometry"/>
                </mxCell>
                <mxCell id="IsXeN4zFqowB7tDELrzI-25" value="&lt;font style=&quot;font-size: 17px;&quot;&gt;5 février 2023&lt;/font&gt;" style="html=1;shadow=0;dashed=0;shape=mxgraph.bootstrap.anchor;fontSize=26;align=left;whiteSpace=wrap;" parent="IsXeN4zFqowB7tDELrzI-20" vertex="1">
                    <mxGeometry x="13" y="259.71750000000003" width="300" height="40.9" as="geometry"/>
                </mxCell>
                <mxCell id="IsXeN4zFqowB7tDELrzI-26" value="&lt;font style=&quot;font-size: 17px;&quot;&gt;8:30&lt;/font&gt;" style="html=1;shadow=0;dashed=0;shape=mxgraph.bootstrap.anchor;fontSize=26;align=left;whiteSpace=wrap;" parent="IsXeN4zFqowB7tDELrzI-20" vertex="1">
                    <mxGeometry x="13" y="294.995" width="300" height="40.9" as="geometry"/>
                </mxCell>
                <mxCell id="IsXeN4zFqowB7tDELrzI-27" value="Delete" style="html=1;shadow=0;dashed=0;shape=mxgraph.bootstrap.rrect;rSize=5;fontSize=16;fillColor=#FF0000;strokeColor=none;fontColor=#ffffff;whiteSpace=wrap;" parent="IsXeN4zFqowB7tDELrzI-20" vertex="1">
                    <mxGeometry x="225" y="351" width="80" height="40" as="geometry"/>
                </mxCell>
                <mxCell id="IsXeN4zFqowB7tDELrzI-28" value="" style="html=1;shadow=0;dashed=0;shape=mxgraph.bootstrap.rrect;rSize=5;strokeColor=#dddddd;rounded=0;fontSize=12;align=center;" parent="IsXeN4zFqowB7tDELrzI-1" vertex="1">
                    <mxGeometry x="533" y="886" width="330" height="272" as="geometry"/>
                </mxCell>
                <mxCell id="IsXeN4zFqowB7tDELrzI-29" value="320x200" style="shape=rect;fontSize=24;fillColor=#f0f0f0;strokeColor=none;fontColor=#999999;whiteSpace=wrap;" parent="IsXeN4zFqowB7tDELrzI-28" vertex="1">
                    <mxGeometry x="5" y="3.4" width="320" height="143.6" as="geometry"/>
                </mxCell>
                <mxCell id="IsXeN4zFqowB7tDELrzI-30" value="Karim Malaoui" style="html=1;shadow=0;dashed=0;shape=mxgraph.bootstrap.anchor;fontSize=26;align=left;whiteSpace=wrap;" parent="IsXeN4zFqowB7tDELrzI-28" vertex="1">
                    <mxGeometry x="10" y="162" width="300" height="27.199999999999996" as="geometry"/>
                </mxCell>
                <mxCell id="IsXeN4zFqowB7tDELrzI-31" value="" style="html=1;shadow=0;dashed=0;shape=mxgraph.bootstrap.anchor;fontSize=26;align=left;whiteSpace=wrap;" parent="IsXeN4zFqowB7tDELrzI-28" vertex="1">
                    <mxGeometry x="13" y="127.83999999999999" width="300" height="27.199999999999996" as="geometry"/>
                </mxCell>
                <mxCell id="IsXeN4zFqowB7tDELrzI-32" value="" style="html=1;shadow=0;dashed=0;shape=mxgraph.bootstrap.anchor;fontSize=26;align=left;whiteSpace=wrap;" parent="IsXeN4zFqowB7tDELrzI-28" vertex="1">
                    <mxGeometry x="13" y="151.64" width="300" height="27.199999999999996" as="geometry"/>
                </mxCell>
                <mxCell id="IsXeN4zFqowB7tDELrzI-33" value="" style="html=1;shadow=0;dashed=0;shape=mxgraph.bootstrap.anchor;fontSize=26;align=left;whiteSpace=wrap;" parent="IsXeN4zFqowB7tDELrzI-28" vertex="1">
                    <mxGeometry x="13" y="172.72166259168705" width="300" height="27.199999999999996" as="geometry"/>
                </mxCell>
                <mxCell id="IsXeN4zFqowB7tDELrzI-34" value="" style="html=1;shadow=0;dashed=0;shape=mxgraph.bootstrap.anchor;fontSize=26;align=left;whiteSpace=wrap;" parent="IsXeN4zFqowB7tDELrzI-28" vertex="1">
                    <mxGeometry x="13" y="196.18249388753054" width="300" height="27.199999999999996" as="geometry"/>
                </mxCell>
                <mxCell id="IsXeN4zFqowB7tDELrzI-35" value="Delete" style="html=1;shadow=0;dashed=0;shape=mxgraph.bootstrap.rrect;rSize=5;fontSize=16;fillColor=#FF0000;strokeColor=none;fontColor=#ffffff;whiteSpace=wrap;" parent="IsXeN4zFqowB7tDELrzI-28" vertex="1">
                    <mxGeometry x="230" y="217" width="80" height="40" as="geometry"/>
                </mxCell>
                <mxCell id="IsXeN4zFqowB7tDELrzI-36" value="" style="html=1;shadow=0;dashed=0;shape=mxgraph.bootstrap.rrect;rSize=5;strokeColor=#dddddd;rounded=0;fontSize=12;align=center;" parent="IsXeN4zFqowB7tDELrzI-1" vertex="1">
                    <mxGeometry x="907" y="886" width="330" height="272" as="geometry"/>
                </mxCell>
                <mxCell id="IsXeN4zFqowB7tDELrzI-37" value="320x200" style="shape=rect;fontSize=24;fillColor=#f0f0f0;strokeColor=none;fontColor=#999999;whiteSpace=wrap;" parent="IsXeN4zFqowB7tDELrzI-36" vertex="1">
                    <mxGeometry x="5" y="3.4" width="320" height="143.6" as="geometry"/>
                </mxCell>
                <mxCell id="IsXeN4zFqowB7tDELrzI-38" value="Carolina Pizo" style="html=1;shadow=0;dashed=0;shape=mxgraph.bootstrap.anchor;fontSize=26;align=left;whiteSpace=wrap;" parent="IsXeN4zFqowB7tDELrzI-36" vertex="1">
                    <mxGeometry x="10" y="162" width="300" height="27.199999999999996" as="geometry"/>
                </mxCell>
                <mxCell id="IsXeN4zFqowB7tDELrzI-39" value="" style="html=1;shadow=0;dashed=0;shape=mxgraph.bootstrap.anchor;fontSize=26;align=left;whiteSpace=wrap;" parent="IsXeN4zFqowB7tDELrzI-36" vertex="1">
                    <mxGeometry x="13" y="127.83999999999999" width="300" height="27.199999999999996" as="geometry"/>
                </mxCell>
                <mxCell id="IsXeN4zFqowB7tDELrzI-40" value="" style="html=1;shadow=0;dashed=0;shape=mxgraph.bootstrap.anchor;fontSize=26;align=left;whiteSpace=wrap;" parent="IsXeN4zFqowB7tDELrzI-36" vertex="1">
                    <mxGeometry x="13" y="151.64" width="300" height="27.199999999999996" as="geometry"/>
                </mxCell>
                <mxCell id="IsXeN4zFqowB7tDELrzI-41" value="" style="html=1;shadow=0;dashed=0;shape=mxgraph.bootstrap.anchor;fontSize=26;align=left;whiteSpace=wrap;" parent="IsXeN4zFqowB7tDELrzI-36" vertex="1">
                    <mxGeometry x="13" y="172.72166259168705" width="300" height="27.199999999999996" as="geometry"/>
                </mxCell>
                <mxCell id="IsXeN4zFqowB7tDELrzI-42" value="" style="html=1;shadow=0;dashed=0;shape=mxgraph.bootstrap.anchor;fontSize=26;align=left;whiteSpace=wrap;" parent="IsXeN4zFqowB7tDELrzI-36" vertex="1">
                    <mxGeometry x="13" y="196.18249388753054" width="300" height="27.199999999999996" as="geometry"/>
                </mxCell>
                <mxCell id="IsXeN4zFqowB7tDELrzI-43" value="Delete" style="html=1;shadow=0;dashed=0;shape=mxgraph.bootstrap.rrect;rSize=5;fontSize=16;fillColor=#FF0000;strokeColor=none;fontColor=#ffffff;whiteSpace=wrap;" parent="IsXeN4zFqowB7tDELrzI-36" vertex="1">
                    <mxGeometry x="233" y="214.0000000000001" width="80" height="40" as="geometry"/>
                </mxCell>
                <mxCell id="IsXeN4zFqowB7tDELrzI-44" value="Request" style="html=1;shadow=0;dashed=0;shape=mxgraph.bootstrap.rrect;rSize=5;fontSize=16;fillColor=#3D8BCD;strokeColor=none;fontColor=#ffffff;whiteSpace=wrap;" parent="IsXeN4zFqowB7tDELrzI-1" vertex="1">
                    <mxGeometry x="1685" y="959" width="151" height="40" as="geometry"/>
                </mxCell>
                <mxCell id="IsXeN4zFqowB7tDELrzI-45" value="" style="rounded=0;whiteSpace=wrap;html=1;labelBackgroundColor=#FFFFFF;strokeColor=#000000;strokeWidth=3;fontSize=25;fontColor=#000000;fillColor=#000000;gradientColor=none;opacity=40;" parent="IsXeN4zFqowB7tDELrzI-1" vertex="1">
                    <mxGeometry x="1" y="3" width="1916" height="1196" as="geometry"/>
                </mxCell>
                <mxCell id="IsXeN4zFqowB7tDELrzI-46" value="" style="rounded=1;whiteSpace=wrap;html=1;labelBackgroundColor=#FFFFFF;strokeColor=none;strokeWidth=3;fontSize=25;fontColor=#000000;fillColor=#FFFFFF;gradientColor=none;arcSize=10;" parent="IsXeN4zFqowB7tDELrzI-1" vertex="1">
                    <mxGeometry x="253.75" y="261.5" width="1436.5" height="679" as="geometry"/>
                </mxCell>
                <mxCell id="3Nbi5zdhfFkbv24T7ZP6-0" value="" style="html=1;shadow=0;dashed=0;shape=mxgraph.bootstrap.rrect;rSize=5;strokeColor=#dddddd;rounded=0;fontSize=12;align=center;" parent="IsXeN4zFqowB7tDELrzI-1" vertex="1">
                    <mxGeometry x="421" y="309" width="330" height="272" as="geometry"/>
                </mxCell>
                <mxCell id="3Nbi5zdhfFkbv24T7ZP6-1" value="320x200" style="shape=rect;fontSize=24;fillColor=#f0f0f0;strokeColor=none;fontColor=#999999;whiteSpace=wrap;" parent="3Nbi5zdhfFkbv24T7ZP6-0" vertex="1">
                    <mxGeometry x="5" y="3.4" width="320" height="143.6" as="geometry"/>
                </mxCell>
                <mxCell id="3Nbi5zdhfFkbv24T7ZP6-2" value="Karim Malaoui" style="html=1;shadow=0;dashed=0;shape=mxgraph.bootstrap.anchor;fontSize=26;align=left;whiteSpace=wrap;" parent="3Nbi5zdhfFkbv24T7ZP6-0" vertex="1">
                    <mxGeometry x="10" y="162" width="300" height="27.199999999999996" as="geometry"/>
                </mxCell>
                <mxCell id="3Nbi5zdhfFkbv24T7ZP6-3" value="" style="html=1;shadow=0;dashed=0;shape=mxgraph.bootstrap.anchor;fontSize=26;align=left;whiteSpace=wrap;" parent="3Nbi5zdhfFkbv24T7ZP6-0" vertex="1">
                    <mxGeometry x="13" y="127.83999999999999" width="300" height="27.199999999999996" as="geometry"/>
                </mxCell>
                <mxCell id="3Nbi5zdhfFkbv24T7ZP6-4" value="" style="html=1;shadow=0;dashed=0;shape=mxgraph.bootstrap.anchor;fontSize=26;align=left;whiteSpace=wrap;" parent="3Nbi5zdhfFkbv24T7ZP6-0" vertex="1">
                    <mxGeometry x="13" y="151.64" width="300" height="27.199999999999996" as="geometry"/>
                </mxCell>
                <mxCell id="3Nbi5zdhfFkbv24T7ZP6-5" value="" style="html=1;shadow=0;dashed=0;shape=mxgraph.bootstrap.anchor;fontSize=26;align=left;whiteSpace=wrap;" parent="3Nbi5zdhfFkbv24T7ZP6-0" vertex="1">
                    <mxGeometry x="13" y="172.72166259168705" width="300" height="27.199999999999996" as="geometry"/>
                </mxCell>
                <mxCell id="3Nbi5zdhfFkbv24T7ZP6-6" value="" style="html=1;shadow=0;dashed=0;shape=mxgraph.bootstrap.anchor;fontSize=26;align=left;whiteSpace=wrap;" parent="3Nbi5zdhfFkbv24T7ZP6-0" vertex="1">
                    <mxGeometry x="13" y="196.18249388753054" width="300" height="27.199999999999996" as="geometry"/>
                </mxCell>
                <mxCell id="3Nbi5zdhfFkbv24T7ZP6-7" value="Deny" style="html=1;shadow=0;dashed=0;shape=mxgraph.bootstrap.rrect;rSize=5;fontSize=16;fillColor=#FF0000;strokeColor=none;fontColor=#ffffff;whiteSpace=wrap;" parent="3Nbi5zdhfFkbv24T7ZP6-0" vertex="1">
                    <mxGeometry x="230" y="217" width="80" height="40" as="geometry"/>
                </mxCell>
                <mxCell id="v6VDpaGaV2Us_0B_Tl7Y-0" value="Accept" style="html=1;shadow=0;dashed=0;shape=mxgraph.bootstrap.rrect;rSize=5;fontSize=16;fillColor=#007FFF;strokeColor=none;fontColor=#ffffff;whiteSpace=wrap;gradientColor=none;" parent="3Nbi5zdhfFkbv24T7ZP6-0" vertex="1">
                    <mxGeometry x="132" y="217" width="80" height="40" as="geometry"/>
                </mxCell>
                <mxCell id="tNANdDynW0yoooUMS7OK-0" value="" style="verticalLabelPosition=bottom;shadow=0;dashed=0;align=center;html=1;verticalAlign=top;strokeWidth=1;shape=mxgraph.mockup.navigation.scrollBar;strokeColor=#999999;barPos=100;fillColor2=#99ddff;strokeColor2=none;direction=north;fontSize=41;fontColor=#000000;fillColor=#000000;" parent="IsXeN4zFqowB7tDELrzI-1" vertex="1">
                    <mxGeometry x="1606" y="261.5" width="20" height="677.5" as="geometry"/>
                </mxCell>
                <mxCell id="v6VDpaGaV2Us_0B_Tl7Y-1" value="" style="html=1;shadow=0;dashed=0;shape=mxgraph.bootstrap.rrect;rSize=5;strokeColor=#dddddd;rounded=0;fontSize=12;align=center;" parent="IsXeN4zFqowB7tDELrzI-1" vertex="1">
                    <mxGeometry x="781" y="312" width="330" height="272" as="geometry"/>
                </mxCell>
                <mxCell id="v6VDpaGaV2Us_0B_Tl7Y-2" value="320x200" style="shape=rect;fontSize=24;fillColor=#f0f0f0;strokeColor=none;fontColor=#999999;whiteSpace=wrap;" parent="v6VDpaGaV2Us_0B_Tl7Y-1" vertex="1">
                    <mxGeometry x="5" y="3.4" width="320" height="143.6" as="geometry"/>
                </mxCell>
                <mxCell id="v6VDpaGaV2Us_0B_Tl7Y-3" value="Lala Lu" style="html=1;shadow=0;dashed=0;shape=mxgraph.bootstrap.anchor;fontSize=26;align=left;whiteSpace=wrap;" parent="v6VDpaGaV2Us_0B_Tl7Y-1" vertex="1">
                    <mxGeometry x="10" y="162" width="300" height="27.199999999999996" as="geometry"/>
                </mxCell>
                <mxCell id="v6VDpaGaV2Us_0B_Tl7Y-4" value="" style="html=1;shadow=0;dashed=0;shape=mxgraph.bootstrap.anchor;fontSize=26;align=left;whiteSpace=wrap;" parent="v6VDpaGaV2Us_0B_Tl7Y-1" vertex="1">
                    <mxGeometry x="13" y="127.83999999999999" width="300" height="27.199999999999996" as="geometry"/>
                </mxCell>
                <mxCell id="v6VDpaGaV2Us_0B_Tl7Y-5" value="" style="html=1;shadow=0;dashed=0;shape=mxgraph.bootstrap.anchor;fontSize=26;align=left;whiteSpace=wrap;" parent="v6VDpaGaV2Us_0B_Tl7Y-1" vertex="1">
                    <mxGeometry x="13" y="151.64" width="300" height="27.199999999999996" as="geometry"/>
                </mxCell>
                <mxCell id="v6VDpaGaV2Us_0B_Tl7Y-6" value="" style="html=1;shadow=0;dashed=0;shape=mxgraph.bootstrap.anchor;fontSize=26;align=left;whiteSpace=wrap;" parent="v6VDpaGaV2Us_0B_Tl7Y-1" vertex="1">
                    <mxGeometry x="13" y="172.72166259168705" width="300" height="27.199999999999996" as="geometry"/>
                </mxCell>
                <mxCell id="v6VDpaGaV2Us_0B_Tl7Y-7" value="" style="html=1;shadow=0;dashed=0;shape=mxgraph.bootstrap.anchor;fontSize=26;align=left;whiteSpace=wrap;" parent="v6VDpaGaV2Us_0B_Tl7Y-1" vertex="1">
                    <mxGeometry x="13" y="196.18249388753054" width="300" height="27.199999999999996" as="geometry"/>
                </mxCell>
                <mxCell id="v6VDpaGaV2Us_0B_Tl7Y-8" value="Deny" style="html=1;shadow=0;dashed=0;shape=mxgraph.bootstrap.rrect;rSize=5;fontSize=16;fillColor=#FF0000;strokeColor=none;fontColor=#ffffff;whiteSpace=wrap;" parent="v6VDpaGaV2Us_0B_Tl7Y-1" vertex="1">
                    <mxGeometry x="230" y="217" width="80" height="40" as="geometry"/>
                </mxCell>
                <mxCell id="v6VDpaGaV2Us_0B_Tl7Y-9" value="Accept" style="html=1;shadow=0;dashed=0;shape=mxgraph.bootstrap.rrect;rSize=5;fontSize=16;fillColor=#007FFF;strokeColor=none;fontColor=#ffffff;whiteSpace=wrap;gradientColor=none;" parent="v6VDpaGaV2Us_0B_Tl7Y-1" vertex="1">
                    <mxGeometry x="132" y="217" width="80" height="40" as="geometry"/>
                </mxCell>
                <mxCell id="v6VDpaGaV2Us_0B_Tl7Y-10" value="" style="html=1;shadow=0;dashed=0;shape=mxgraph.bootstrap.rrect;rSize=5;strokeColor=#dddddd;rounded=0;fontSize=12;align=center;" parent="IsXeN4zFqowB7tDELrzI-1" vertex="1">
                    <mxGeometry x="1134" y="309" width="330" height="272" as="geometry"/>
                </mxCell>
                <mxCell id="v6VDpaGaV2Us_0B_Tl7Y-11" value="320x200" style="shape=rect;fontSize=24;fillColor=#f0f0f0;strokeColor=none;fontColor=#999999;whiteSpace=wrap;" parent="v6VDpaGaV2Us_0B_Tl7Y-10" vertex="1">
                    <mxGeometry x="5" y="3.4" width="320" height="143.6" as="geometry"/>
                </mxCell>
                <mxCell id="v6VDpaGaV2Us_0B_Tl7Y-12" value="Papa Pu" style="html=1;shadow=0;dashed=0;shape=mxgraph.bootstrap.anchor;fontSize=26;align=left;whiteSpace=wrap;" parent="v6VDpaGaV2Us_0B_Tl7Y-10" vertex="1">
                    <mxGeometry x="10" y="162" width="300" height="27.199999999999996" as="geometry"/>
                </mxCell>
                <mxCell id="v6VDpaGaV2Us_0B_Tl7Y-13" value="" style="html=1;shadow=0;dashed=0;shape=mxgraph.bootstrap.anchor;fontSize=26;align=left;whiteSpace=wrap;" parent="v6VDpaGaV2Us_0B_Tl7Y-10" vertex="1">
                    <mxGeometry x="13" y="127.83999999999999" width="300" height="27.199999999999996" as="geometry"/>
                </mxCell>
                <mxCell id="v6VDpaGaV2Us_0B_Tl7Y-14" value="" style="html=1;shadow=0;dashed=0;shape=mxgraph.bootstrap.anchor;fontSize=26;align=left;whiteSpace=wrap;" parent="v6VDpaGaV2Us_0B_Tl7Y-10" vertex="1">
                    <mxGeometry x="13" y="151.64" width="300" height="27.199999999999996" as="geometry"/>
                </mxCell>
                <mxCell id="v6VDpaGaV2Us_0B_Tl7Y-15" value="" style="html=1;shadow=0;dashed=0;shape=mxgraph.bootstrap.anchor;fontSize=26;align=left;whiteSpace=wrap;" parent="v6VDpaGaV2Us_0B_Tl7Y-10" vertex="1">
                    <mxGeometry x="13" y="172.72166259168705" width="300" height="27.199999999999996" as="geometry"/>
                </mxCell>
                <mxCell id="v6VDpaGaV2Us_0B_Tl7Y-16" value="" style="html=1;shadow=0;dashed=0;shape=mxgraph.bootstrap.anchor;fontSize=26;align=left;whiteSpace=wrap;" parent="v6VDpaGaV2Us_0B_Tl7Y-10" vertex="1">
                    <mxGeometry x="13" y="196.18249388753054" width="300" height="27.199999999999996" as="geometry"/>
                </mxCell>
                <mxCell id="v6VDpaGaV2Us_0B_Tl7Y-17" value="Deny" style="html=1;shadow=0;dashed=0;shape=mxgraph.bootstrap.rrect;rSize=5;fontSize=16;fillColor=#FF0000;strokeColor=none;fontColor=#ffffff;whiteSpace=wrap;" parent="v6VDpaGaV2Us_0B_Tl7Y-10" vertex="1">
                    <mxGeometry x="230" y="217" width="80" height="40" as="geometry"/>
                </mxCell>
                <mxCell id="v6VDpaGaV2Us_0B_Tl7Y-18" value="Accept" style="html=1;shadow=0;dashed=0;shape=mxgraph.bootstrap.rrect;rSize=5;fontSize=16;fillColor=#007FFF;strokeColor=none;fontColor=#ffffff;whiteSpace=wrap;gradientColor=none;" parent="v6VDpaGaV2Us_0B_Tl7Y-10" vertex="1">
                    <mxGeometry x="132" y="217" width="80" height="40" as="geometry"/>
                </mxCell>
                <mxCell id="v6VDpaGaV2Us_0B_Tl7Y-19" value="" style="html=1;shadow=0;dashed=0;shape=mxgraph.bootstrap.rrect;rSize=5;strokeColor=#dddddd;rounded=0;fontSize=12;align=center;" parent="IsXeN4zFqowB7tDELrzI-1" vertex="1">
                    <mxGeometry x="421" y="600" width="330" height="272" as="geometry"/>
                </mxCell>
                <mxCell id="v6VDpaGaV2Us_0B_Tl7Y-20" value="320x200" style="shape=rect;fontSize=24;fillColor=#f0f0f0;strokeColor=none;fontColor=#999999;whiteSpace=wrap;" parent="v6VDpaGaV2Us_0B_Tl7Y-19" vertex="1">
                    <mxGeometry x="5" y="3.4" width="320" height="143.6" as="geometry"/>
                </mxCell>
                <mxCell id="v6VDpaGaV2Us_0B_Tl7Y-21" value="Sisi Su" style="html=1;shadow=0;dashed=0;shape=mxgraph.bootstrap.anchor;fontSize=26;align=left;whiteSpace=wrap;" parent="v6VDpaGaV2Us_0B_Tl7Y-19" vertex="1">
                    <mxGeometry x="10" y="162" width="300" height="27.199999999999996" as="geometry"/>
                </mxCell>
                <mxCell id="v6VDpaGaV2Us_0B_Tl7Y-22" value="" style="html=1;shadow=0;dashed=0;shape=mxgraph.bootstrap.anchor;fontSize=26;align=left;whiteSpace=wrap;" parent="v6VDpaGaV2Us_0B_Tl7Y-19" vertex="1">
                    <mxGeometry x="13" y="127.83999999999999" width="300" height="27.199999999999996" as="geometry"/>
                </mxCell>
                <mxCell id="v6VDpaGaV2Us_0B_Tl7Y-23" value="" style="html=1;shadow=0;dashed=0;shape=mxgraph.bootstrap.anchor;fontSize=26;align=left;whiteSpace=wrap;" parent="v6VDpaGaV2Us_0B_Tl7Y-19" vertex="1">
                    <mxGeometry x="13" y="151.64" width="300" height="27.199999999999996" as="geometry"/>
                </mxCell>
                <mxCell id="v6VDpaGaV2Us_0B_Tl7Y-24" value="" style="html=1;shadow=0;dashed=0;shape=mxgraph.bootstrap.anchor;fontSize=26;align=left;whiteSpace=wrap;" parent="v6VDpaGaV2Us_0B_Tl7Y-19" vertex="1">
                    <mxGeometry x="13" y="172.72166259168705" width="300" height="27.199999999999996" as="geometry"/>
                </mxCell>
                <mxCell id="v6VDpaGaV2Us_0B_Tl7Y-25" value="" style="html=1;shadow=0;dashed=0;shape=mxgraph.bootstrap.anchor;fontSize=26;align=left;whiteSpace=wrap;" parent="v6VDpaGaV2Us_0B_Tl7Y-19" vertex="1">
                    <mxGeometry x="13" y="196.18249388753054" width="300" height="27.199999999999996" as="geometry"/>
                </mxCell>
                <mxCell id="v6VDpaGaV2Us_0B_Tl7Y-26" value="Deny" style="html=1;shadow=0;dashed=0;shape=mxgraph.bootstrap.rrect;rSize=5;fontSize=16;fillColor=#FF0000;strokeColor=none;fontColor=#ffffff;whiteSpace=wrap;" parent="v6VDpaGaV2Us_0B_Tl7Y-19" vertex="1">
                    <mxGeometry x="230" y="217" width="80" height="40" as="geometry"/>
                </mxCell>
                <mxCell id="v6VDpaGaV2Us_0B_Tl7Y-27" value="Accept" style="html=1;shadow=0;dashed=0;shape=mxgraph.bootstrap.rrect;rSize=5;fontSize=16;fillColor=#007FFF;strokeColor=none;fontColor=#ffffff;whiteSpace=wrap;gradientColor=none;" parent="v6VDpaGaV2Us_0B_Tl7Y-19" vertex="1">
                    <mxGeometry x="132" y="217" width="80" height="40" as="geometry"/>
                </mxCell>
                <mxCell id="v6VDpaGaV2Us_0B_Tl7Y-28" value="" style="html=1;shadow=0;dashed=0;shape=mxgraph.bootstrap.rrect;rSize=5;strokeColor=#dddddd;rounded=0;fontSize=12;align=center;" parent="IsXeN4zFqowB7tDELrzI-1" vertex="1">
                    <mxGeometry x="781" y="600" width="330" height="272" as="geometry"/>
                </mxCell>
                <mxCell id="v6VDpaGaV2Us_0B_Tl7Y-29" value="320x200" style="shape=rect;fontSize=24;fillColor=#f0f0f0;strokeColor=none;fontColor=#999999;whiteSpace=wrap;" parent="v6VDpaGaV2Us_0B_Tl7Y-28" vertex="1">
                    <mxGeometry x="5" y="3.4" width="320" height="143.6" as="geometry"/>
                </mxCell>
                <mxCell id="v6VDpaGaV2Us_0B_Tl7Y-30" value="Lakri Malm" style="html=1;shadow=0;dashed=0;shape=mxgraph.bootstrap.anchor;fontSize=26;align=left;whiteSpace=wrap;" parent="v6VDpaGaV2Us_0B_Tl7Y-28" vertex="1">
                    <mxGeometry x="10" y="162" width="300" height="27.199999999999996" as="geometry"/>
                </mxCell>
                <mxCell id="v6VDpaGaV2Us_0B_Tl7Y-31" value="" style="html=1;shadow=0;dashed=0;shape=mxgraph.bootstrap.anchor;fontSize=26;align=left;whiteSpace=wrap;" parent="v6VDpaGaV2Us_0B_Tl7Y-28" vertex="1">
                    <mxGeometry x="13" y="127.83999999999999" width="300" height="27.199999999999996" as="geometry"/>
                </mxCell>
                <mxCell id="v6VDpaGaV2Us_0B_Tl7Y-32" value="" style="html=1;shadow=0;dashed=0;shape=mxgraph.bootstrap.anchor;fontSize=26;align=left;whiteSpace=wrap;" parent="v6VDpaGaV2Us_0B_Tl7Y-28" vertex="1">
                    <mxGeometry x="13" y="151.64" width="300" height="27.199999999999996" as="geometry"/>
                </mxCell>
                <mxCell id="v6VDpaGaV2Us_0B_Tl7Y-33" value="" style="html=1;shadow=0;dashed=0;shape=mxgraph.bootstrap.anchor;fontSize=26;align=left;whiteSpace=wrap;" parent="v6VDpaGaV2Us_0B_Tl7Y-28" vertex="1">
                    <mxGeometry x="13" y="172.72166259168705" width="300" height="27.199999999999996" as="geometry"/>
                </mxCell>
                <mxCell id="v6VDpaGaV2Us_0B_Tl7Y-34" value="" style="html=1;shadow=0;dashed=0;shape=mxgraph.bootstrap.anchor;fontSize=26;align=left;whiteSpace=wrap;" parent="v6VDpaGaV2Us_0B_Tl7Y-28" vertex="1">
                    <mxGeometry x="13" y="196.18249388753054" width="300" height="27.199999999999996" as="geometry"/>
                </mxCell>
                <mxCell id="v6VDpaGaV2Us_0B_Tl7Y-35" value="Deny" style="html=1;shadow=0;dashed=0;shape=mxgraph.bootstrap.rrect;rSize=5;fontSize=16;fillColor=#FF0000;strokeColor=none;fontColor=#ffffff;whiteSpace=wrap;" parent="v6VDpaGaV2Us_0B_Tl7Y-28" vertex="1">
                    <mxGeometry x="230" y="217" width="80" height="40" as="geometry"/>
                </mxCell>
                <mxCell id="v6VDpaGaV2Us_0B_Tl7Y-36" value="Accept" style="html=1;shadow=0;dashed=0;shape=mxgraph.bootstrap.rrect;rSize=5;fontSize=16;fillColor=#007FFF;strokeColor=none;fontColor=#ffffff;whiteSpace=wrap;gradientColor=none;" parent="v6VDpaGaV2Us_0B_Tl7Y-28" vertex="1">
                    <mxGeometry x="132" y="217" width="80" height="40" as="geometry"/>
                </mxCell>
                <mxCell id="v6VDpaGaV2Us_0B_Tl7Y-37" value="" style="html=1;shadow=0;dashed=0;shape=mxgraph.bootstrap.rrect;rSize=5;strokeColor=#dddddd;rounded=0;fontSize=12;align=center;" parent="IsXeN4zFqowB7tDELrzI-1" vertex="1">
                    <mxGeometry x="1134" y="600" width="330" height="272" as="geometry"/>
                </mxCell>
                <mxCell id="v6VDpaGaV2Us_0B_Tl7Y-38" value="320x200" style="shape=rect;fontSize=24;fillColor=#f0f0f0;strokeColor=none;fontColor=#999999;whiteSpace=wrap;" parent="v6VDpaGaV2Us_0B_Tl7Y-37" vertex="1">
                    <mxGeometry x="5" y="3.4" width="320" height="143.6" as="geometry"/>
                </mxCell>
                <mxCell id="v6VDpaGaV2Us_0B_Tl7Y-39" value="Shank Mu" style="html=1;shadow=0;dashed=0;shape=mxgraph.bootstrap.anchor;fontSize=26;align=left;whiteSpace=wrap;" parent="v6VDpaGaV2Us_0B_Tl7Y-37" vertex="1">
                    <mxGeometry x="10" y="162" width="300" height="27.199999999999996" as="geometry"/>
                </mxCell>
                <mxCell id="v6VDpaGaV2Us_0B_Tl7Y-40" value="" style="html=1;shadow=0;dashed=0;shape=mxgraph.bootstrap.anchor;fontSize=26;align=left;whiteSpace=wrap;" parent="v6VDpaGaV2Us_0B_Tl7Y-37" vertex="1">
                    <mxGeometry x="13" y="127.83999999999999" width="300" height="27.199999999999996" as="geometry"/>
                </mxCell>
                <mxCell id="v6VDpaGaV2Us_0B_Tl7Y-41" value="" style="html=1;shadow=0;dashed=0;shape=mxgraph.bootstrap.anchor;fontSize=26;align=left;whiteSpace=wrap;" parent="v6VDpaGaV2Us_0B_Tl7Y-37" vertex="1">
                    <mxGeometry x="13" y="151.64" width="300" height="27.199999999999996" as="geometry"/>
                </mxCell>
                <mxCell id="v6VDpaGaV2Us_0B_Tl7Y-42" value="" style="html=1;shadow=0;dashed=0;shape=mxgraph.bootstrap.anchor;fontSize=26;align=left;whiteSpace=wrap;" parent="v6VDpaGaV2Us_0B_Tl7Y-37" vertex="1">
                    <mxGeometry x="13" y="172.72166259168705" width="300" height="27.199999999999996" as="geometry"/>
                </mxCell>
                <mxCell id="v6VDpaGaV2Us_0B_Tl7Y-43" value="" style="html=1;shadow=0;dashed=0;shape=mxgraph.bootstrap.anchor;fontSize=26;align=left;whiteSpace=wrap;" parent="v6VDpaGaV2Us_0B_Tl7Y-37" vertex="1">
                    <mxGeometry x="13" y="196.18249388753054" width="300" height="27.199999999999996" as="geometry"/>
                </mxCell>
                <mxCell id="v6VDpaGaV2Us_0B_Tl7Y-44" value="Deny" style="html=1;shadow=0;dashed=0;shape=mxgraph.bootstrap.rrect;rSize=5;fontSize=16;fillColor=#FF0000;strokeColor=none;fontColor=#ffffff;whiteSpace=wrap;" parent="v6VDpaGaV2Us_0B_Tl7Y-37" vertex="1">
                    <mxGeometry x="230" y="217" width="80" height="40" as="geometry"/>
                </mxCell>
                <mxCell id="v6VDpaGaV2Us_0B_Tl7Y-45" value="Accept" style="html=1;shadow=0;dashed=0;shape=mxgraph.bootstrap.rrect;rSize=5;fontSize=16;fillColor=#007FFF;strokeColor=none;fontColor=#ffffff;whiteSpace=wrap;gradientColor=none;" parent="v6VDpaGaV2Us_0B_Tl7Y-37" vertex="1">
                    <mxGeometry x="132" y="217" width="80" height="40" as="geometry"/>
                </mxCell>
            </root>
        </mxGraphModel>
    </diagram>
</mxfile>